<svg width="32" height="32" viewBox="0 0 32 32" fill="none" xmlns="http://www.w3.org/2000/svg">
<g clip-path="url(#clip0_2_114)">
<path d="M15.3543 19.3945H17.9414C18.0654 19.4013 18.1821 19.4553 18.2674 19.5455C18.3528 19.6357 18.4004 19.7552 18.4004 19.8793C18.4004 20.0035 18.3528 20.123 18.2674 20.2132C18.1821 20.3033 18.0654 20.3574 17.9414 20.3642H15.3543C15.2303 20.3574 15.1136 20.3033 15.0283 20.2132C14.9429 20.123 14.8953 20.0035 14.8953 19.8793C14.8953 19.7552 14.9429 19.6357 15.0283 19.5455C15.1136 19.4553 15.2303 19.4013 15.3543 19.3945ZM18.3443 27.1532H15.3543C15.2303 27.16 15.1136 27.214 15.0283 27.3042C14.9429 27.3944 14.8953 27.5138 14.8953 27.638C14.8953 27.7622 14.9429 27.8817 15.0283 27.9718C15.1136 28.062 15.2303 28.1161 15.3543 28.1228H18.3443C18.4683 28.1161 18.585 28.062 18.6704 27.9718C18.7557 27.8817 18.8033 27.7622 18.8033 27.638C18.8033 27.5138 18.7557 27.3944 18.6704 27.3042C18.585 27.214 18.4683 27.16 18.3443 27.1532ZM7.596 4.84827H12.7672C12.896 4.84827 13.0195 4.79711 13.1106 4.70605C13.2016 4.61499 13.2528 4.49149 13.2528 4.36271C13.2528 4.23394 13.2016 4.11044 13.1106 4.01938C13.0195 3.92832 12.896 3.87716 12.7672 3.87716H7.596C7.46723 3.87716 7.34373 3.92832 7.25268 4.01938C7.16162 4.11044 7.11047 4.23394 7.11047 4.36271C7.11047 4.49149 7.16162 4.61499 7.25268 4.70605C7.34373 4.79711 7.46723 4.84827 7.596 4.84827ZM14.0586 7.75723H11.0295C10.9055 7.76401 10.7888 7.81804 10.7034 7.90822C10.6181 7.9984 10.5705 8.11787 10.5705 8.24205C10.5705 8.36624 10.6181 8.4857 10.7034 8.57588C10.7888 8.66606 10.9055 8.7201 11.0295 8.72688H14.0586C14.1826 8.7201 14.2993 8.66606 14.3847 8.57588C14.47 8.4857 14.5176 8.36624 14.5176 8.24205C14.5176 8.11787 14.47 7.9984 14.3847 7.90822C14.2993 7.81804 14.1826 7.76401 14.0586 7.75723ZM3.71611 8.72688H8.44386C8.56785 8.7201 8.68454 8.66606 8.76991 8.57588C8.85529 8.4857 8.90287 8.36624 8.90287 8.24205C8.90287 8.11787 8.85529 7.9984 8.76991 7.90822C8.68454 7.81804 8.56785 7.76401 8.44386 7.75723H3.71756C3.59357 7.76401 3.47688 7.81804 3.39151 7.90822C3.30613 7.9984 3.25855 8.11787 3.25855 8.24205C3.25855 8.36624 3.30613 8.4857 3.39151 8.57588C3.47688 8.66606 3.59357 8.7201 3.71756 8.72688H3.71611ZM11.1599 11.6358H8.20327C8.07928 11.6426 7.96259 11.6967 7.87722 11.7868C7.79184 11.877 7.74426 11.9965 7.74426 12.1207C7.74426 12.2448 7.79184 12.3643 7.87722 12.4545C7.96259 12.5447 8.07928 12.5987 8.20327 12.6055H11.1599C11.2839 12.5987 11.4006 12.5447 11.486 12.4545C11.5714 12.3643 11.6189 12.2448 11.6189 12.1207C11.6189 11.9965 11.5714 11.877 11.486 11.7868C11.4006 11.6967 11.2839 11.6426 11.1599 11.6358ZM3.71756 12.6098H5.61765C5.74164 12.6031 5.85832 12.549 5.9437 12.4588C6.02908 12.3687 6.07666 12.2492 6.07666 12.125C6.07666 12.0008 6.02908 11.8814 5.9437 11.7912C5.85832 11.701 5.74164 11.647 5.61765 11.6402H3.71756C3.59357 11.647 3.47688 11.701 3.39151 11.7912C3.30613 11.8814 3.25855 12.0008 3.25855 12.125C3.25855 12.2492 3.30613 12.3687 3.39151 12.4588C3.47688 12.549 3.59357 12.6031 3.71756 12.6098ZM10.1816 15.5202H3.71756C3.59357 15.527 3.47688 15.5811 3.39151 15.6712C3.30613 15.7614 3.25855 15.8809 3.25855 16.0051C3.25855 16.1293 3.30613 16.2487 3.39151 16.3389C3.47688 16.4291 3.59357 16.4831 3.71756 16.4899H10.1816C10.3108 16.4899 10.4346 16.4386 10.526 16.3473C10.6173 16.2559 10.6686 16.1321 10.6686 16.0029C10.6686 15.8737 10.6173 15.7499 10.526 15.6585C10.4346 15.5672 10.3108 15.5159 10.1816 15.5159V15.5202ZM9.93958 19.3989H8.16269C8.09679 19.3953 8.03086 19.4051 7.9689 19.4279C7.90695 19.4506 7.85028 19.4857 7.80236 19.5311C7.75443 19.5765 7.71627 19.6311 7.69018 19.6918C7.6641 19.7524 7.65064 19.8177 7.65064 19.8837C7.65064 19.9497 7.6641 20.015 7.69018 20.0756C7.71627 20.1362 7.75443 20.1909 7.80236 20.2363C7.85028 20.2816 7.90695 20.3168 7.9689 20.3395C8.03086 20.3622 8.09679 20.3721 8.16269 20.3685H9.93958C10.0687 20.3685 10.1926 20.3172 10.2839 20.2259C10.3753 20.1345 10.4266 20.0107 10.4266 19.8815C10.4266 19.7524 10.3753 19.6285 10.2839 19.5372C10.1926 19.4458 10.0687 19.3945 9.93958 19.3945V19.3989ZM5.57706 19.3989H3.71756C3.65166 19.3953 3.58573 19.4051 3.52377 19.4279C3.46182 19.4506 3.40515 19.4857 3.35723 19.5311C3.30931 19.5765 3.27114 19.6311 3.24505 19.6918C3.21897 19.7524 3.20551 19.8177 3.20551 19.8837C3.20551 19.9497 3.21897 20.015 3.24505 20.0756C3.27114 20.1362 3.30931 20.1909 3.35723 20.2363C3.40515 20.2816 3.46182 20.3168 3.52377 20.3395C3.58573 20.3622 3.65166 20.3721 3.71756 20.3685H5.57706C5.70622 20.3685 5.83008 20.3172 5.92141 20.2259C6.01274 20.1345 6.06404 20.0107 6.06404 19.8815C6.06404 19.7524 6.01274 19.6285 5.92141 19.5372C5.83008 19.4458 5.70622 19.3945 5.57706 19.3945V19.3989ZM32 8.24278V31.5159C32 31.6443 31.949 31.7674 31.8582 31.8582C31.7674 31.949 31.6443 32 31.5159 32H12.1223C12.0587 32.0002 11.9956 31.9878 11.9368 31.9635C11.878 31.9393 11.8246 31.9036 11.7796 31.8586C11.7346 31.8136 11.6989 31.7602 11.6747 31.7014C11.6504 31.6426 11.638 31.5795 11.6382 31.5159V24.2428H0.485529C0.356759 24.2428 0.233263 24.1916 0.142208 24.1006C0.0511538 24.0095 0 23.886 0 23.7572L0 0.484102C0.000383641 0.355577 0.0517068 0.232447 0.14272 0.141702C0.233732 0.0509566 0.35701 -5.7262e-07 0.485529 0L19.8777 0C20.0062 -5.7262e-07 20.1295 0.0509566 20.2205 0.141702C20.3115 0.232447 20.3629 0.355577 20.3632 0.484102V7.75867H31.5232C31.6502 7.76095 31.7712 7.81291 31.8604 7.90341C31.9495 7.99391 31.9996 8.11574 32 8.24278ZM11.7788 13.7186L17.5979 7.90072C17.7907 7.63258 19.1081 7.80361 19.3936 7.75578V0.969653H0.969609V23.2731H11.6382V14.0592C11.639 13.9317 11.6894 13.8095 11.7788 13.7186ZM13.4426 13.4288L17.4559 12.9838V9.42114L13.4426 13.4288ZM31.0304 8.72833H18.4211V13.4157C18.421 13.5355 18.3765 13.651 18.2962 13.7399C18.2159 13.8288 18.1055 13.8847 17.9863 13.8969L12.6093 14.4941V31.0303H31.0304V8.72833ZM21.1734 12.6098H28.2839C28.4079 12.6031 28.5246 12.549 28.6099 12.4588C28.6953 12.3687 28.7429 12.2492 28.7429 12.125C28.7429 12.0008 28.6953 11.8814 28.6099 11.7912C28.5246 11.701 28.4079 11.647 28.2839 11.6402H21.1734C21.0494 11.647 20.9327 11.701 20.8474 11.7912C20.762 11.8814 20.7144 12.0008 20.7144 12.125C20.7144 12.2492 20.762 12.3687 20.8474 12.4588C20.9327 12.549 21.0494 12.6031 21.1734 12.6098ZM28.2839 15.5202H25.2533C25.1293 15.527 25.0126 15.5811 24.9273 15.6712C24.8419 15.7614 24.7943 15.8809 24.7943 16.0051C24.7943 16.1293 24.8419 16.2487 24.9273 16.3389C25.0126 16.4291 25.1293 16.4831 25.2533 16.4899H28.2839C28.413 16.4899 28.5369 16.4386 28.6282 16.3473C28.7196 16.2559 28.7709 16.1321 28.7709 16.0029C28.7709 15.8737 28.7196 15.7499 28.6282 15.6585C28.5369 15.5672 28.413 15.5159 28.2839 15.5159V15.5202ZM15.3543 16.4899H22.6677C22.7917 16.4831 22.9084 16.4291 22.9937 16.3389C23.0791 16.2487 23.1267 16.1293 23.1267 16.0051C23.1267 15.8809 23.0791 15.7614 22.9937 15.6712C22.9084 15.5811 22.7917 15.527 22.6677 15.5202H15.3543C15.2354 15.5333 15.1255 15.5898 15.0457 15.6788C14.9659 15.7679 14.9218 15.8833 14.9218 16.0029C14.9218 16.1225 14.9659 16.2379 15.0457 16.327C15.1255 16.416 15.2354 16.4725 15.3543 16.4856V16.4899ZM28.2839 19.3989H20.527C20.403 19.4056 20.2863 19.4597 20.201 19.5499C20.1156 19.64 20.068 19.7595 20.068 19.8837C20.068 20.0079 20.1156 20.1273 20.201 20.2175C20.2863 20.3077 20.403 20.3617 20.527 20.3685H28.2839C28.413 20.3685 28.5369 20.3172 28.6282 20.2259C28.7196 20.1345 28.7709 20.0107 28.7709 19.8815C28.7709 19.7524 28.7196 19.6285 28.6282 19.5372C28.5369 19.4458 28.413 19.3945 28.2839 19.3945V19.3989ZM28.2839 23.2789H24.4055C24.2771 23.2789 24.1539 23.3299 24.0632 23.4207C23.9724 23.5115 23.9214 23.6346 23.9214 23.763C23.9214 23.8914 23.9724 24.0145 24.0632 24.1053C24.1539 24.1961 24.2771 24.2471 24.4055 24.2471H28.2839C28.4128 24.2471 28.5365 24.1959 28.6277 24.1047C28.7189 24.0135 28.7701 23.8898 28.7701 23.7608C28.7701 23.6319 28.7189 23.5082 28.6277 23.417C28.5365 23.3258 28.4128 23.2746 28.2839 23.2746V23.2789ZM15.3543 24.2471H21.8184C21.9468 24.2471 22.0699 24.1961 22.1607 24.1053C22.2515 24.0145 22.3025 23.8914 22.3025 23.763C22.3025 23.6346 22.2515 23.5115 22.1607 23.4207C22.0699 23.3299 21.9468 23.2789 21.8184 23.2789H15.3543C15.2344 23.2903 15.1231 23.346 15.042 23.4351C14.961 23.5243 14.9161 23.6404 14.9161 23.7608C14.9161 23.8813 14.961 23.9974 15.042 24.0866C15.1231 24.1757 15.2344 24.2314 15.3543 24.2428V24.2471ZM24.404 27.1575H20.9256C20.8016 27.1643 20.6849 27.2184 20.5995 27.3085C20.5142 27.3987 20.4666 27.5182 20.4666 27.6424C20.4666 27.7665 20.5142 27.886 20.5995 27.9762C20.6849 28.0664 20.8016 28.1204 20.9256 28.1272H24.404C24.5332 28.1272 24.657 28.0759 24.7483 27.9845C24.8397 27.8932 24.891 27.7693 24.891 27.6402C24.891 27.511 24.8397 27.3872 24.7483 27.2958C24.657 27.2045 24.5332 27.1532 24.404 27.1532V27.1575ZM7.02496 29.7375H2.42475C2.04036 29.7375 1.67171 29.5848 1.39991 29.313C1.1281 29.0411 0.975406 28.6725 0.975406 28.2881V26.9952C0.968624 26.8712 0.91459 26.7545 0.824416 26.6691C0.734242 26.5837 0.614782 26.5362 0.490602 26.5362C0.366422 26.5362 0.246962 26.5837 0.156788 26.6691C0.0666135 26.7545 0.0125795 26.8712 0.00579736 26.9952V28.2881C0.00656449 28.9309 0.262275 29.5473 0.716837 30.0019C1.1714 30.4564 1.7877 30.7122 2.43054 30.7129H7.02496V31.6782L9.53666 30.2288L7.02496 28.7794V29.7375ZM29.5767 1.29287H24.9765V0.327566L22.4648 1.77697L24.9765 3.22638V2.26252H29.5767C29.9611 2.26252 30.3297 2.41523 30.6015 2.68705C30.8733 2.95886 31.026 3.32752 31.026 3.71193V5.0048C31.0328 5.1288 31.0869 5.24549 31.177 5.33087C31.2672 5.41625 31.3867 5.46383 31.5108 5.46383C31.635 5.46383 31.7545 5.41625 31.8447 5.33087C31.9348 5.24549 31.9889 5.1288 31.9957 5.0048V3.71773C31.9949 3.07585 31.74 2.4604 31.2867 2.00598C30.8334 1.55157 30.2185 1.29517 29.5767 1.29287Z" fill="#2697EC"/>
</g>
<defs>
<clipPath id="clip0_2_114">
<rect width="32" height="32" fill="white"/>
</clipPath>
</defs>
</svg>
