<svg width="32" height="32" viewBox="0 0 32 32" fill="none" xmlns="http://www.w3.org/2000/svg">
<g clip-path="url(#clip0_2_93)">
<path d="M9.375 11.8137C9.03 11.8137 8.75 12.0937 8.75 12.4387C8.75 12.7837 9.03 13.0637 9.375 13.0637C9.72 13.0637 10 12.7837 10 12.4387C10 12.0937 9.72 11.8137 9.375 11.8137Z" fill="#2697EC"/>
<path d="M31.375 27H29.125V3.125C29.125 1.40188 27.7231 0 26 0H3.125C1.40188 0 0 1.40188 0 3.125V5.625C0 5.97013 0.279875 6.25 0.625 6.25H5V28.875C5 30.5981 6.40188 32 8.125 32H28.875C30.5981 32 32 30.5981 32 28.875V27.625C32 27.2799 31.7201 27 31.375 27ZM5 5H1.25V3.125C1.25 2.09113 2.09113 1.25 3.125 1.25C3.6255 1.25 4.09625 1.44513 4.45056 1.79938C4.80487 2.15375 5 2.6245 5 3.125V5ZM10 27.625V28.875C10 29.9089 9.15887 30.75 8.125 30.75C7.09113 30.75 6.25 29.9089 6.25 28.875V5.625V3.125C6.25 2.43975 6.03025 1.78819 5.62469 1.25H26C27.0339 1.25 27.875 2.09113 27.875 3.125V27H25.375V24.7929C26.1725 24.0822 26.625 23.0818 26.625 22C26.625 19.9323 24.9427 18.25 22.875 18.25C21.7669 18.25 20.7701 18.7334 20.0829 19.5H9.375C9.02987 19.5 8.75 19.7799 8.75 20.125C8.75 20.4701 9.02987 20.75 9.375 20.75H19.34C19.2013 21.1413 19.125 21.5618 19.125 22C19.125 22.4342 19.1985 22.8552 19.3372 23.25H9.375C9.02987 23.25 8.75 23.5299 8.75 23.875C8.75 24.2201 9.02987 24.5 9.375 24.5H19.75C19.8483 24.5 19.941 24.4766 20.0238 24.4362C20.1319 24.5619 20.2493 24.6808 20.375 24.7929V27H10.625C10.2799 27 10 27.2799 10 27.625ZM22.875 24.5C22.3295 24.5 21.8116 24.3274 21.377 24.0009C21.3763 24.0003 21.3756 23.9998 21.3749 23.9993C20.7394 23.5221 20.375 22.7935 20.375 22C20.375 20.6215 21.4965 19.5 22.875 19.5C24.2535 19.5 25.375 20.6215 25.375 22C25.375 22.7936 25.0104 23.5224 24.3743 23.9999C23.9394 24.3271 23.421 24.5 22.875 24.5ZM24.125 25.5365V28.4059L23.2217 27.8037C23.0117 27.6637 22.7383 27.6637 22.5283 27.8037L21.625 28.4059V25.5364C22.0221 25.6769 22.4428 25.75 22.875 25.75C23.3073 25.75 23.7279 25.677 24.125 25.5365ZM30.75 28.875C30.75 29.9089 29.9089 30.75 28.875 30.75H10.6233C11.0166 30.2273 11.25 29.578 11.25 28.875V28.25H20.375V29.5737C20.375 29.8042 20.5019 30.016 20.7051 30.1248C20.9084 30.2336 21.1549 30.2216 21.3467 30.0938L22.875 29.0749L24.4033 30.0938C24.5079 30.1635 24.6287 30.1987 24.7501 30.1987C24.8511 30.1987 24.9525 30.1742 25.0449 30.1248C25.2481 30.016 25.375 29.8042 25.375 29.5737V28.25H30.75V28.875Z" fill="#2697EC"/>
<path d="M19.75 3.75H13.125C12.7799 3.75 12.5 4.02988 12.5 4.375C12.5 4.72012 12.7799 5 13.125 5H19.75C20.0951 5 20.375 4.72012 20.375 4.375C20.375 4.02988 20.0951 3.75 19.75 3.75Z" fill="#2697EC"/>
<path d="M24.75 11.8137H11.875C11.5299 11.8137 11.25 12.0935 11.25 12.4387C11.25 12.7838 11.5299 13.0637 11.875 13.0637H24.75C25.0951 13.0637 25.375 12.7838 25.375 12.4387C25.375 12.0935 25.0951 11.8137 24.75 11.8137Z" fill="#2697EC"/>
<path d="M24.75 15.75H9.375C9.02988 15.75 8.75 16.0299 8.75 16.375C8.75 16.7201 9.02988 17 9.375 17H24.75C25.0951 17 25.375 16.7201 25.375 16.375C25.375 16.0299 25.0951 15.75 24.75 15.75Z" fill="#2697EC"/>
<path d="M24.75 7.68634H9.375C9.02988 7.68634 8.75 7.96622 8.75 8.31134C8.75 8.65647 9.02988 8.93634 9.375 8.93634H24.75C25.0951 8.93634 25.375 8.65647 25.375 8.31134C25.375 7.96622 25.0951 7.68634 24.75 7.68634Z" fill="#2697EC"/>
</g>
<defs>
<clipPath id="clip0_2_93">
<rect width="32" height="32" fill="white"/>
</clipPath>
</defs>
</svg>
