<svg xmlns="http://www.w3.org/2000/svg" id="icon-logo-beta-ru" width="120" height="15" viewBox="4.69 62.21 607.33 76.01" fill="none">
<path fill="#2DBE64" d="M347.4,136.37h-37.87V64h33.26c15.07,0,23.22,9.38,23.22,20.5c0,4.97-2.51,10.1-6.36,13.94   c5.69,2.97,10.56,9.74,10.56,16.81C370.21,127.61,360.57,136.37,347.4,136.37z M327.41,121.82h17.53c4.36,0,7.18-3.23,7.18-7.12   v-0.15c0-3.95-2.87-7.12-7.18-7.12h-17.53V121.82z M327.41,92.86h13.07c4.66,0,7.48-3.23,7.48-7.12c0-3.95-2.61-7.12-7.48-7.12   h-13.07C327.41,78.61,327.41,92.86,327.41,92.86z"></path>
<polygon fill="#2DBE64" points="146.14,136.37 120.1,99.37 145.32,64 124.31,64 104.22,93.01 104.22,64 85.92,64 85.92,136.37   104.22,136.37 104.22,106.7 124.36,136.37  "></polygon>
<path fill="#2DBE64" d="M474.92,64v53.51c0,2.41-1.08,4.25-3.33,4.25c-3.18,0-3.33-3.64-3.33-6.05h-17.17   c0,11.58,6.66,22.45,21.01,22.45c12.51,0,21.06-10.15,21.06-22.65V80.3h24.75v56.07h18.3V64H474.92z"></path>
<path fill="#2DBE64" d="M228.35,64l-25.32,53.4c-4.66,10.15-14.35,20.76-30.8,20.76c-13.99,0-27.16-8.51-29.52-27.21h17.73   c1.33,7.48,6.66,10.81,12.61,10.81c5.07,0,8.51-3.02,9.48-4.77L152.34,64h21.06l19.17,35l15.79-35C208.36,64,228.35,64,228.35,64z"></path>
<path fill="#2DBE64" d="M53.37,136.37H4.69V64h44.13c15.07,0,23.22,9.38,23.22,20.5c0,4.97-2.51,10.1-6.36,13.94   c5.69,2.97,10.56,9.74,10.56,16.81C76.23,127.61,66.55,136.37,53.37,136.37z M22.57,121.82h28.39c4.36,0,7.18-3.23,7.18-7.12v-0.15   c0-3.95-2.87-7.12-7.18-7.12H22.57V121.82z M22.57,92.86h23.93c4.66,0,7.48-3.23,7.48-7.12c0-3.95-2.61-7.12-7.48-7.12H22.57V92.86   z"></path>
<path fill="#2DBE64" d="M280.83,109.21c-2.82,6.61-8.87,11.28-17.32,11.28c-11.89,0-19.07-9.28-19.07-20.3l0,0   c0-11.02,7.18-20.3,19.07-20.3c8.46,0,14.5,4.72,17.32,11.38h19.68c-3.69-16.55-17.58-29.06-37-29.06   c-22.81,0-37.98,17.22-37.98,37.98v0.05c0,20.81,15.17,37.98,37.98,37.98c19.42,0,33.31-12.45,37-29.01H280.83z"></path>
<polygon fill="#2DBE64" points="429.56,64 399.06,105.83 399.06,64 380.77,64 380.77,136.37 397.42,136.37 427.97,94.6 427.97,136.37   446.27,136.37 446.27,64  "></polygon>
<path fill="#2DBE64" d="M556.92,64v48.89c0,4.51-2.56,7.23-7.23,7.23h-5.38v16.2H554c12.76,0,21.22-8.05,21.22-22.76V80.25h18.5v56.07   h18.3V64H556.92z"></path>
</svg>