<svg width="377" height="74" viewBox="0 0 377 74" fill="none" xmlns="http://www.w3.org/2000/svg">
<g clip-path="url(#clip0_2_37)">
<path d="M34.9579 73.0805L34.9025 20.4586C34.9025 20.4586 24.3783 15.2795 22.0629 14.4431C20.4012 13.8283 16.2079 13.5846 14.4298 15.8612C14.164 16.199 7.2624 23.616 7.18486 23.7157C7.10731 23.8154 7.18486 73.6898 7.18486 73.6898C7.18486 73.6898 13.5713 72.2828 14.4853 72.1111C16.4129 71.7455 19.3765 71.2415 22.1184 71.5572C23.7801 71.74 34.9525 73.1137 34.9525 73.1137" fill="url(#paint0_linear_2_37)"/>
<path d="M7.53302 71.6458C7.53302 71.6458 12.1858 70.3719 14.3128 69.7626C16.7723 69.1069 19.3308 68.9041 21.8629 69.1643C24.2281 69.4856 34.4863 71.0865 34.4863 71.0865V69.0147C34.4863 69.0147 24.0728 67.486 21.8572 67.1481C19.3349 66.8028 16.7687 66.9704 14.3128 67.6411C12.3686 68.195 7.52734 69.674 7.52734 69.674L7.53302 71.6458Z" fill="white"/>
<path d="M7.52734 67.5691L14.3074 65.5307C16.7707 64.8907 19.3354 64.7382 21.8572 65.082C24.2113 65.4642 34.4809 66.849 34.4809 66.849V64.6333L21.8518 62.9052C19.3276 62.6359 16.7759 62.8007 14.3074 63.3925C12.3576 63.9188 7.52734 65.4309 7.52734 65.4309V67.5691Z" fill="white"/>
<path d="M7.52246 63.4036C7.52246 63.4036 12.1753 61.8028 14.3079 61.2157C16.7646 60.5545 19.3221 60.3516 21.8523 60.6174C24.212 60.9664 34.476 62.7112 34.476 62.7112V60.4956C25.918 58.9391 24.09 58.6289 21.8466 58.3187C19.3144 58.0332 16.7507 58.2496 14.3022 58.9557C12.3857 59.5982 7.52246 61.2932 7.52246 61.2932V63.4036Z" fill="white"/>
<path d="M7.52246 58.9169C7.52246 58.9169 11.8264 57.1721 14.3079 56.1473C16.7129 55.2377 19.3156 54.9798 21.8523 55.3996C24.1898 55.8815 34.476 57.9365 34.476 57.9365V55.8206C34.476 55.8206 24.6771 53.8486 21.8466 53.2337C19.3205 52.7528 16.7107 52.9751 14.3022 53.8764L7.52246 56.8896V58.9169Z" fill="white"/>
<path d="M7.52246 54.8235C7.52246 54.8235 12.3081 52.7408 14.3022 51.777C16.6935 50.8109 19.3115 50.5494 21.8466 51.0236C24.1841 51.5221 34.476 53.8375 34.476 53.8375V51.7714C34.476 51.7714 24.0513 49.301 21.8523 48.8634C19.1215 48.3095 15.8255 48.7581 14.3022 49.5003C12.4854 50.3921 7.52246 52.7131 7.52246 52.7131V54.8235Z" fill="white"/>
<path d="M7.5166 50.9794C7.5166 50.9794 12.369 48.3815 14.2966 47.2958C16.648 46.1881 19.2954 45.8733 21.841 46.3985C24.1675 46.9524 34.4702 49.6666 34.4702 49.6666V47.4509C34.4702 47.4509 24.0344 44.6814 21.8464 44.2161C19.1156 43.6124 15.8199 44.1164 14.2966 45.0082C12.5574 46.0274 7.5166 48.8357 7.5166 48.8357V50.9794Z" fill="white"/>
<path d="M7.51074 46.98C7.51074 46.98 12.4349 43.9114 14.2905 42.6983C15.8138 41.7068 19.1096 41.0365 21.8349 41.8009C24.1336 42.449 34.4643 45.2296 34.4643 45.2296V43.1635C34.4643 43.1635 25.1528 40.5934 21.8349 39.6351C19.1096 38.8486 15.8139 39.4246 14.2851 40.4272C12.6234 41.535 7.51074 44.8585 7.51074 44.8585V46.98Z" fill="white"/>
<path d="M7.51154 42.881L14.2859 38.1561C15.8092 37.087 19.105 36.3061 21.8303 37.1481C24.1179 37.846 34.4594 41.0255 34.4594 41.0255V38.9648C34.4594 38.9648 23.9628 35.6413 21.8303 34.9655C19.0995 34.0904 15.8092 34.6554 14.2859 35.7522C12.6242 36.932 7.50586 40.8371 7.50586 40.8371L7.51154 42.881Z" fill="white"/>
<path d="M7.50541 38.7211C7.50541 38.7211 12.5682 35.0931 14.2798 33.6917C15.803 32.4454 19.099 31.7529 21.8298 32.6447C24.1009 33.3869 34.4536 36.8157 34.4536 36.8157V34.7219C34.4536 34.7219 23.929 31.0495 21.8241 30.3294C19.0934 29.4099 15.803 30.0801 14.2798 31.271C12.7565 32.4619 7.5 36.5942 7.5 36.5942L7.50541 38.7211Z" fill="white"/>
<path d="M7.47754 34.8881L14.2576 29.2659C15.3265 28.4751 16.5699 27.9534 17.8832 27.7451C19.1964 27.5368 20.5406 27.6481 21.8017 28.0694C23.6739 28.7784 34.4311 32.6392 34.4311 32.6392V30.6285C34.4311 30.6285 23.9066 26.4187 21.8017 25.599C19.0764 24.5354 15.7808 25.25 14.2576 26.5461C12.4906 28.0417 7.47754 32.4177 7.47754 32.4177V34.8881Z" fill="white"/>
<path d="M0.0273438 36.7936C0.0273438 36.7936 3.67213 33.6418 5.18432 32.318C5.99303 31.609 7.15088 32.1519 7.15088 32.1519L7.19523 73.1416C6.8784 73.1108 6.55922 73.1108 6.24238 73.1416C4.39231 73.3797 0.0662908 74.0056 0.0662908 74.0056L0.0273438 36.7936Z" fill="#A19F9F"/>
<path d="M0.0332031 38.7878C0.0332031 38.7878 4.27071 35.4311 5.22344 34.65C5.49823 34.4486 5.81245 34.3078 6.14573 34.2372C6.47901 34.1665 6.82359 34.1676 7.15646 34.2401V36.1234C6.50812 35.9792 5.82939 36.0861 5.25671 36.4225C4.10457 37.3199 0.0332031 40.5658 0.0332031 40.5658V38.7878Z" fill="white"/>
<path d="M0 42.3438C0 42.3438 4.34826 39.048 5.29545 38.2836C5.55256 38.0884 5.85189 37.9562 6.16933 37.8975C6.48676 37.8388 6.81336 37.8554 7.12326 37.9458V39.6408C6.48656 39.5694 5.84664 39.7437 5.33413 40.1282C4.16537 40.9923 0 44.1385 0 44.1385V42.3438Z" fill="white"/>
<path d="M0.000526505 45.8002C0.000526505 45.8002 4.43181 42.5653 5.36792 41.9228C5.91122 41.6379 6.51088 41.4772 7.12379 41.452V43.3242C6.51755 43.3597 5.92862 43.5401 5.4066 43.8504L-0.00488281 47.7666L0.000526505 45.8002Z" fill="white"/>
<path d="M0.0390625 49.3398C0.0390625 49.3398 4.52037 46.3597 5.44541 45.7006C5.93661 45.3263 6.55563 45.161 7.168 45.2408V47.2294C6.58146 47.22 6.0046 47.3795 5.50626 47.689C4.27657 48.4756 0.0669205 51.1345 0.0669205 51.1345L0.0390625 49.3398Z" fill="white"/>
<path d="M0.00488281 52.8681C0.00488281 52.8681 4.20355 50.3921 5.54403 49.6498C6.02549 49.3525 6.59516 49.2312 7.156 49.3065V51.367C6.6092 51.3179 6.05979 51.4256 5.57188 51.6773C3.95999 52.5137 0.0327408 54.6628 0.0327408 54.6628L0.00488281 52.8681Z" fill="white"/>
<path d="M0.0497015 56.1584C0.0497015 56.1584 4.2096 54.2087 5.58884 53.5273C6.06364 53.2508 6.62358 53.1582 7.16214 53.267V55.1615C6.64287 55.1045 6.11727 55.1611 5.62211 55.3276C4.23733 55.9369 0.0332031 57.8146 0.0332031 57.8146L0.0497015 56.1584Z" fill="white"/>
<path d="M0.0498047 59.4708C0.0498047 59.4708 4.38717 57.6096 5.67225 57.1444C6.14219 56.9198 6.67778 56.8745 7.17875 57.017V58.9168C6.69281 58.7778 6.1736 58.8132 5.71093 59.0167C4.11012 59.6813 0.0554845 61.2654 0.0554845 61.2654L0.0498047 59.4708Z" fill="white"/>
<path d="M0.0556641 62.9771C0.0556641 62.9771 4.09358 61.5093 5.74978 60.9609C6.21711 60.8167 6.71728 60.8167 7.18461 60.9609V62.7112C6.71987 62.6191 6.23925 62.6476 5.78873 62.7943C3.77802 63.3482 0.0556641 64.7607 0.0556641 64.7607V62.9771Z" fill="white"/>
<path d="M0.0224609 66.5886C0.0224609 66.5886 4.04387 65.3478 5.82747 64.8936C6.27635 64.7791 6.74688 64.7791 7.19576 64.8936V66.7769C6.75384 66.699 6.30006 66.7179 5.86615 66.8323C3.90529 67.3197 0.0224609 68.3833 0.0224609 68.3833V66.5886Z" fill="white"/>
<path d="M0.0605469 70.1281C0.0605469 70.1281 4.04335 69.2641 5.90451 68.9206C6.32878 68.8473 6.76081 68.8306 7.18949 68.8709V70.7708C6.79823 70.7533 6.40633 70.7793 6.02081 70.8482C4.65264 71.0477 0.0662267 71.9283 0.0662267 71.9283L0.0605469 70.1281Z" fill="white"/>
<path d="M49.5753 33.3538C49.5753 33.3538 40.7404 29.8753 39.0011 29.2382C37.5222 28.6843 34.9463 29.2382 34.9463 29.2382L34.9906 71.8897C36.0408 71.805 37.0952 71.7827 38.1481 71.8231C40.5188 71.9505 49.6139 72.6817 49.6139 72.6817L49.5753 33.3538Z" fill="url(#paint1_linear_2_37)"/>
<path d="M49.642 35.3367C49.642 35.3367 41.5104 32.412 38.9181 31.5313C37.6137 31.1505 36.2294 31.1389 34.9189 31.498V33.5199C36.2329 33.1807 37.6164 33.2229 38.9072 33.6417C40.4139 34.1956 49.6363 37.281 49.6363 37.281L49.642 35.3367Z" fill="white"/>
<path d="M49.6415 39.2253L38.8678 35.5805C37.5832 35.203 36.2204 35.18 34.9238 35.5139V37.558C36.2133 37.2659 37.5552 37.2982 38.8291 37.6521C40.873 38.3223 49.6469 41.1695 49.6469 41.1695L49.6415 39.2253Z" fill="white"/>
<path d="M49.6473 42.8867C49.6473 42.8867 41.272 40.2666 38.7905 39.5244C37.5238 39.1745 36.1883 39.1574 34.9131 39.4746V41.4189C36.1788 41.1799 37.4817 41.2215 38.7296 41.5407C40.7126 42.0946 49.6308 44.8309 49.6308 44.8309L49.6473 42.8867Z" fill="white"/>
<path d="M49.6528 46.7972C49.6528 46.7972 41.2 44.4042 38.7019 43.6786C37.475 43.3344 36.1884 43.2589 34.9297 43.4571V45.4291C36.1687 45.2152 37.4387 45.2643 38.6575 45.5731C40.6738 46.127 49.6471 48.5863 49.6471 48.5863L49.6528 46.7972Z" fill="white"/>
<path d="M49.6532 50.4641C49.6532 50.4641 41.2059 48.3371 38.6247 47.6447C37.4159 47.3244 36.1444 47.3244 34.9355 47.6447V49.5391C36.1387 49.2818 37.3829 49.2818 38.586 49.5391C40.5358 50.0099 49.6643 52.3863 49.6643 52.3863L49.6532 50.4641Z" fill="white"/>
<path d="M49.6588 54.0756C49.6588 54.0756 40.9346 52.1038 38.5473 51.5554C37.3605 51.285 36.1282 51.285 34.9414 51.5554V53.5384C36.0973 53.1755 37.3323 53.1487 38.5029 53.4609L49.6588 56.031V54.0756Z" fill="white"/>
<path d="M49.6645 57.6429C49.6645 57.6429 41.0399 55.9147 38.4642 55.3829C37.3029 55.1259 36.0985 55.1353 34.9414 55.4106V57.5431C36.0877 57.3294 37.2619 57.3108 38.4145 57.4878C40.4196 57.7925 49.6588 59.5816 49.6588 59.5816L49.6645 57.6429Z" fill="white"/>
<path d="M49.664 61.5259C40.9731 59.9251 40.9673 59.9195 38.375 59.565C37.2377 59.3918 36.08 59.4029 34.9463 59.5981V61.5535C36.0729 61.4514 37.2073 61.4663 38.3309 61.5978C40.2087 61.8083 40.2696 61.7862 49.664 63.3206V61.5259Z" fill="white"/>
<path d="M49.6697 65.3534C49.6697 65.3534 40.8846 64.0074 38.2922 63.6917C37.189 63.5343 36.0681 63.5474 34.9688 63.7305V65.8574C36.059 65.6097 37.1852 65.5628 38.2922 65.7189C40.3971 65.9183 49.714 67.1536 49.714 67.1536L49.6697 65.3534Z" fill="white"/>
<path d="M49.6747 68.339C49.6747 68.339 40.9449 67.4639 38.2086 67.1647C37.1232 67.0663 36.0295 67.1148 34.957 67.3088V69.4801C36.0207 69.3457 37.0953 69.3198 38.1642 69.4026C40.0863 69.5466 49.6747 70.4328 49.6747 70.4328V68.339Z" fill="white"/>
<path d="M7.57227 29.3491L14.3523 23.7269C15.421 22.9356 16.6646 22.4137 17.9779 22.2054C19.2912 21.9971 20.6354 22.1085 21.8964 22.5303C23.7686 23.2393 34.5258 27.1001 34.5258 27.1001V25.0895C34.5258 25.0895 24.0014 20.8797 21.891 20.0654C19.1657 18.9964 15.8699 19.7109 14.3466 21.0015C12.5796 22.5026 7.57227 26.8786 7.57227 26.8786V29.3491Z" fill="white"/>
<path fill-rule="evenodd" clip-rule="evenodd" d="M136.723 35.3866H134.103V33.6252H131.505V35.3866C128.182 35.3866 124.913 35.154 122.554 37.3364C121.213 38.5439 119.784 40.4383 119.784 42.9199V56.4132C119.784 60.4069 123.446 63.9464 127.378 63.9464H131.505V72.3715H134.103V63.9464C138.412 63.9464 142.683 64.4007 145.043 59.3822C145.545 58.3961 145.818 57.3091 145.84 56.2027V43.579C145.84 38.1285 141.808 35.3866 136.723 35.3866ZM131.505 61.0717H126.952C124.315 61.0717 122.388 58.4737 122.388 55.7485V43.5624C122.388 40.5325 124.725 38.2449 127.157 38.2449H131.505V61.0717ZM143.237 54.6517C143.237 57.9752 141.808 61.0717 138.673 61.0717H134.103V38.2615C137.908 38.2615 140.046 37.7076 141.996 40.1891C142.921 41.3634 143.237 42.6706 143.237 44.6757V54.6517Z" fill="#2697EC"/>
<path fill-rule="evenodd" clip-rule="evenodd" d="M160.436 33.47C158.032 33.7692 156.453 34.2012 154.968 35.9294C153.185 38.0343 152.581 40.6432 152.581 44.0996V61.8914C152.581 67.7518 154.669 72.6539 161.15 72.6539C162.37 72.6891 163.587 72.5014 164.74 72.1C165.708 71.6626 166.595 71.0653 167.365 70.3331C168.589 69.1145 169.714 66.295 169.714 63.891V42.1389C169.714 36.7548 165.77 32.7998 160.436 33.47ZM165.637 68.1451C165.154 68.752 164.536 69.2377 163.832 69.5637C163.128 69.8897 162.357 70.0469 161.582 70.0228C159.477 70.0228 157.937 69.7791 156.658 67.9235C155.855 66.7381 155.439 64.877 155.439 62.9826V43.219C155.439 40.9479 155.949 38.7267 157.317 37.3973C157.356 37.3973 157.395 37.3197 157.428 37.3031C159.643 35.3311 163.521 35.6414 165.282 37.5469C167.686 40.1171 167.088 47.6336 167.088 52.4416C167.088 56.3689 167.819 65.1983 165.637 68.1451Z" fill="#2697EC"/>
<path fill-rule="evenodd" clip-rule="evenodd" d="M97.7933 72.4324H100.646V58.8338C100.646 57.6207 102.485 56.0088 102.862 54.6628C103.748 54.8899 103.316 54.7515 103.765 55.5103L113.63 72.4546H116.483C116.129 71.5424 115.673 70.6727 115.125 69.8622L106.368 54.4524C105.88 53.6105 105.305 52.6799 104.839 51.8047C106.302 49.0351 109.869 43.6345 111.663 40.6156L114.433 36.1067C114.959 35.2204 115.402 34.6278 115.851 33.7858H112.721C112.533 34.5835 102.79 50.2925 101.516 52.2478L100.635 53.5605V33.7858H97.7822L97.7933 72.4324Z" fill="#2697EC"/>
<path fill-rule="evenodd" clip-rule="evenodd" d="M90.7038 69.7792L82.7773 33.7748C77.6259 33.7748 79.055 32.8387 77.792 38.2449L72.4801 62.5894C72.12 64.1514 70.4473 71.3302 70.4473 72.438H72.8733C73.527 69.6186 74.1862 66.7438 74.8453 63.869C77.8475 63.869 83.1541 63.5477 85.8517 63.869C87.1312 63.9964 86.6215 64.6555 87.4136 67.7961C87.7681 69.2419 88.1059 70.9314 88.466 72.4547C92.1883 72.4325 91.3408 72.787 90.7038 69.7792ZM75.3162 61.4428L79.9744 40.4217C80.052 40.0451 80.2405 39.3471 80.3125 38.9926C80.3845 38.6381 80.3898 38.5993 80.484 38.278L80.7999 37.5081C80.7999 38.6935 83.0931 48.2153 83.3977 49.4007L86.0843 61.4428H75.3162Z" fill="#2697EC"/>
<path d="M186.75 72V34" stroke="#FFFDFA" stroke-width="0.5"/>
<path d="M200.66 41.5186C200.563 42.3457 200.257 42.9849 199.742 43.436C199.23 43.8836 198.548 44.1074 197.695 44.1074C196.771 44.1074 196.03 43.7762 195.472 43.1138C194.917 42.4513 194.639 41.5651 194.639 40.4551V39.7031C194.639 38.9762 194.768 38.3371 195.026 37.7856C195.287 37.2342 195.656 36.8117 196.132 36.5181C196.609 36.2209 197.16 36.0723 197.787 36.0723C198.617 36.0723 199.283 36.305 199.785 36.7705C200.286 37.2324 200.578 37.8734 200.66 38.6934H199.624C199.534 38.0703 199.339 37.6191 199.038 37.3398C198.741 37.0605 198.324 36.9209 197.787 36.9209C197.128 36.9209 196.61 37.1644 196.234 37.6514C195.862 38.1383 195.676 38.8312 195.676 39.73V40.4873C195.676 41.3359 195.853 42.0109 196.208 42.5122C196.562 43.0135 197.058 43.2642 197.695 43.2642C198.268 43.2642 198.707 43.1353 199.011 42.8774C199.319 42.616 199.523 42.1631 199.624 41.5186H200.66ZM205.615 44C205.558 43.8854 205.511 43.6813 205.475 43.3877C205.013 43.8675 204.462 44.1074 203.821 44.1074C203.248 44.1074 202.777 43.9463 202.408 43.624C202.043 43.2982 201.86 42.8864 201.86 42.3887C201.86 41.7835 202.09 41.3145 202.548 40.9814C203.01 40.6449 203.658 40.4766 204.492 40.4766H205.459V40.02C205.459 39.6727 205.355 39.397 205.148 39.1929C204.94 38.9852 204.634 38.8813 204.229 38.8813C203.875 38.8813 203.577 38.9709 203.338 39.1499C203.098 39.3289 202.978 39.5456 202.978 39.7998H201.979C201.979 39.5098 202.081 39.2305 202.285 38.9619C202.492 38.6898 202.772 38.4749 203.123 38.3174C203.477 38.1598 203.866 38.0811 204.288 38.0811C204.958 38.0811 205.482 38.2493 205.862 38.5859C206.242 38.9189 206.438 39.3791 206.453 39.9663V42.6411C206.453 43.1746 206.521 43.599 206.657 43.9141V44H205.615ZM203.966 43.2427C204.277 43.2427 204.573 43.1621 204.852 43.001C205.131 42.8398 205.334 42.6304 205.459 42.3726V41.1802H204.68C203.463 41.1802 202.854 41.5365 202.854 42.249C202.854 42.5605 202.958 42.804 203.166 42.9795C203.373 43.1549 203.64 43.2427 203.966 43.2427ZM211.467 42.6841L213.443 38.1885H214.684V44H213.69V39.7729L211.81 44H211.123L209.205 39.6816V44H208.212V38.1885H209.501L211.467 42.6841ZM216.131 41.0405C216.131 40.4712 216.242 39.9591 216.464 39.5044C216.69 39.0496 217.001 38.6987 217.399 38.4517C217.8 38.2046 218.256 38.0811 218.768 38.0811C219.56 38.0811 220.199 38.355 220.686 38.9028C221.177 39.4507 221.422 40.1794 221.422 41.0889V41.1587C221.422 41.7244 221.313 42.2329 221.094 42.6841C220.879 43.1317 220.57 43.4808 220.165 43.7314C219.764 43.9821 219.302 44.1074 218.779 44.1074C217.991 44.1074 217.352 43.8335 216.862 43.2856C216.375 42.7378 216.131 42.0127 216.131 41.1104V41.0405ZM217.13 41.1587C217.13 41.8032 217.279 42.3206 217.576 42.7109C217.877 43.1012 218.278 43.2964 218.779 43.2964C219.284 43.2964 219.685 43.0994 219.982 42.7056C220.28 42.3081 220.428 41.7531 220.428 41.0405C220.428 40.4032 220.276 39.8875 219.972 39.4937C219.671 39.0962 219.27 38.8975 218.768 38.8975C218.278 38.8975 217.882 39.0926 217.581 39.4829C217.281 39.8732 217.13 40.4318 217.13 41.1587ZM227.687 41.1587C227.687 42.0431 227.485 42.7557 227.08 43.2964C226.676 43.8371 226.128 44.1074 225.437 44.1074C224.731 44.1074 224.176 43.8836 223.772 43.436V46.2344H222.778V38.1885H223.686L223.734 38.833C224.139 38.3317 224.701 38.0811 225.42 38.0811C226.119 38.0811 226.67 38.3442 227.075 38.8706C227.483 39.397 227.687 40.1292 227.687 41.0674V41.1587ZM226.693 41.0459C226.693 40.3906 226.554 39.8732 226.274 39.4937C225.995 39.1141 225.612 38.9243 225.125 38.9243C224.523 38.9243 224.072 39.1911 223.772 39.7246V42.5015C224.069 43.0314 224.523 43.2964 225.136 43.2964C225.612 43.2964 225.99 43.1084 226.269 42.7324C226.552 42.3529 226.693 41.7907 226.693 41.0459ZM231.476 44.1074C230.689 44.1074 230.048 43.8496 229.553 43.334C229.059 42.8148 228.812 42.1219 228.812 41.2554V41.0728C228.812 40.4963 228.921 39.9824 229.14 39.5312C229.362 39.0765 229.67 38.722 230.064 38.4678C230.461 38.21 230.891 38.0811 231.353 38.0811C232.108 38.0811 232.696 38.3299 233.114 38.8276C233.533 39.3254 233.743 40.0379 233.743 40.9653V41.3789H229.806C229.82 41.9518 229.987 42.4155 230.305 42.77C230.628 43.1209 231.036 43.2964 231.53 43.2964C231.881 43.2964 232.178 43.2248 232.422 43.0815C232.665 42.9383 232.878 42.7485 233.061 42.5122L233.668 42.9849C233.181 43.7332 232.45 44.1074 231.476 44.1074ZM231.353 38.8975C230.952 38.8975 230.615 39.0443 230.343 39.3379C230.071 39.6279 229.903 40.0361 229.838 40.5625H232.749V40.4873C232.721 39.9824 232.585 39.5921 232.341 39.3164C232.098 39.0371 231.768 38.8975 231.353 38.8975ZM238.762 39.0103H236.082V44H235.083V38.1885H238.762V39.0103ZM241.638 42.5444L242.992 38.1885H244.055L241.719 44.897C241.357 45.8638 240.782 46.3472 239.995 46.3472L239.807 46.3311L239.436 46.2612V45.4556L239.705 45.4771C240.041 45.4771 240.303 45.409 240.489 45.2729C240.679 45.1369 240.834 44.888 240.956 44.5264L241.176 43.9355L239.103 38.1885H240.188L241.638 42.5444ZM249.595 38.1885V44H248.596V39.0103H246.62L246.502 41.1855C246.437 42.1846 246.269 42.8989 245.997 43.3286C245.728 43.7583 245.3 43.9821 244.713 44H244.316V43.1245L244.6 43.103C244.922 43.0672 245.153 42.881 245.293 42.5444C245.433 42.2078 245.522 41.5848 245.562 40.6753L245.669 38.1885H249.595ZM255.06 38.1885H256.054V44H255.06V39.7622L252.38 44H251.386V38.1885H252.38V42.4316L255.06 38.1885ZM262.668 41.1587C262.668 42.0431 262.466 42.7557 262.061 43.2964C261.657 43.8371 261.109 44.1074 260.418 44.1074C259.712 44.1074 259.157 43.8836 258.753 43.436V46.2344H257.759V38.1885H258.667L258.715 38.833C259.12 38.3317 259.682 38.0811 260.402 38.0811C261.1 38.0811 261.651 38.3442 262.056 38.8706C262.464 39.397 262.668 40.1292 262.668 41.0674V41.1587ZM261.675 41.0459C261.675 40.3906 261.535 39.8732 261.256 39.4937C260.976 39.1141 260.593 38.9243 260.106 38.9243C259.505 38.9243 259.054 39.1911 258.753 39.7246V42.5015C259.05 43.0314 259.505 43.2964 260.117 43.2964C260.593 43.2964 260.971 43.1084 261.25 42.7324C261.533 42.3529 261.675 41.7907 261.675 41.0459ZM265.883 42.5444L267.236 38.1885H268.3L265.963 44.897C265.602 45.8638 265.027 46.3472 264.239 46.3472L264.051 46.3311L263.681 46.2612V45.4556L263.949 45.4771C264.286 45.4771 264.547 45.409 264.733 45.2729C264.923 45.1369 265.079 44.888 265.201 44.5264L265.421 43.9355L263.348 38.1885H264.433L265.883 42.5444ZM271.638 44.1074C270.85 44.1074 270.209 43.8496 269.715 43.334C269.221 42.8148 268.974 42.1219 268.974 41.2554V41.0728C268.974 40.4963 269.083 39.9824 269.301 39.5312C269.523 39.0765 269.831 38.722 270.225 38.4678C270.623 38.21 271.052 38.0811 271.514 38.0811C272.27 38.0811 272.857 38.3299 273.276 38.8276C273.695 39.3254 273.904 40.0379 273.904 40.9653V41.3789H269.967C269.982 41.9518 270.148 42.4155 270.467 42.77C270.789 43.1209 271.197 43.2964 271.692 43.2964C272.042 43.2964 272.34 43.2248 272.583 43.0815C272.827 42.9383 273.04 42.7485 273.222 42.5122L273.829 42.9849C273.342 43.7332 272.612 44.1074 271.638 44.1074ZM271.514 38.8975C271.113 38.8975 270.777 39.0443 270.505 39.3379C270.232 39.6279 270.064 40.0361 270 40.5625H272.911V40.4873C272.882 39.9824 272.746 39.5921 272.503 39.3164C272.259 39.0371 271.93 38.8975 271.514 38.8975ZM278.515 42.6841L280.492 38.1885H281.733V44H280.739V39.7729L278.859 44H278.172L276.254 39.6816V44H275.261V38.1885H276.55L278.515 42.6841ZM287.031 44C286.974 43.8854 286.927 43.6813 286.892 43.3877C286.43 43.8675 285.878 44.1074 285.237 44.1074C284.664 44.1074 284.193 43.9463 283.825 43.624C283.459 43.2982 283.277 42.8864 283.277 42.3887C283.277 41.7835 283.506 41.3145 283.964 40.9814C284.426 40.6449 285.074 40.4766 285.909 40.4766H286.875V40.02C286.875 39.6727 286.772 39.397 286.564 39.1929C286.356 38.9852 286.05 38.8813 285.645 38.8813C285.291 38.8813 284.994 38.9709 284.754 39.1499C284.514 39.3289 284.394 39.5456 284.394 39.7998H283.395C283.395 39.5098 283.497 39.2305 283.701 38.9619C283.909 38.6898 284.188 38.4749 284.539 38.3174C284.894 38.1598 285.282 38.0811 285.705 38.0811C286.374 38.0811 286.899 38.2493 287.278 38.5859C287.658 38.9189 287.855 39.3791 287.869 39.9663V42.6411C287.869 43.1746 287.937 43.599 288.073 43.9141V44H287.031ZM285.382 43.2427C285.694 43.2427 285.989 43.1621 286.269 43.001C286.548 42.8398 286.75 42.6304 286.875 42.3726V41.1802H286.097C284.879 41.1802 284.27 41.5365 284.27 42.249C284.27 42.5605 284.374 42.804 284.582 42.9795C284.79 43.1549 285.056 43.2427 285.382 43.2427ZM293.979 38.1885V44H292.98V41.7388H291.481L290.111 44H289.037L290.498 41.5884C290.126 41.4523 289.839 41.2428 289.639 40.96C289.442 40.6735 289.343 40.3405 289.343 39.9609C289.343 39.431 289.542 39.0049 289.94 38.6826C290.337 38.3568 290.869 38.1921 291.535 38.1885H293.979ZM290.342 39.9717C290.342 40.2546 290.439 40.4837 290.632 40.6592C290.826 40.8311 291.082 40.9188 291.4 40.9224H292.98V38.9941H291.551C291.182 38.9941 290.888 39.0854 290.67 39.2681C290.452 39.4471 290.342 39.6816 290.342 39.9717ZM298.259 41.0405C298.259 40.4712 298.37 39.9591 298.592 39.5044C298.818 39.0496 299.129 38.6987 299.527 38.4517C299.928 38.2046 300.384 38.0811 300.896 38.0811C301.688 38.0811 302.327 38.355 302.814 38.9028C303.304 39.4507 303.55 40.1794 303.55 41.0889V41.1587C303.55 41.7244 303.44 42.2329 303.222 42.6841C303.007 43.1317 302.697 43.4808 302.293 43.7314C301.892 43.9821 301.43 44.1074 300.907 44.1074C300.119 44.1074 299.48 43.8335 298.99 43.2856C298.503 42.7378 298.259 42.0127 298.259 41.1104V41.0405ZM299.258 41.1587C299.258 41.8032 299.407 42.3206 299.704 42.7109C300.005 43.1012 300.406 43.2964 300.907 43.2964C301.412 43.2964 301.813 43.0994 302.11 42.7056C302.407 42.3081 302.556 41.7531 302.556 41.0405C302.556 40.4032 302.404 39.8875 302.099 39.4937C301.799 39.0962 301.398 38.8975 300.896 38.8975C300.406 38.8975 300.01 39.0926 299.709 39.4829C299.409 39.8732 299.258 40.4318 299.258 41.1587ZM309.815 41.1587C309.815 42.0431 309.613 42.7557 309.208 43.2964C308.803 43.8371 308.256 44.1074 307.564 44.1074C306.859 44.1074 306.304 43.8836 305.899 43.436V46.2344H304.906V38.1885H305.813L305.862 38.833C306.266 38.3317 306.829 38.0811 307.548 38.0811C308.247 38.0811 308.798 38.3442 309.203 38.8706C309.611 39.397 309.815 40.1292 309.815 41.0674V41.1587ZM308.821 41.0459C308.821 40.3906 308.682 39.8732 308.402 39.4937C308.123 39.1141 307.74 38.9243 307.253 38.9243C306.651 38.9243 306.2 39.1911 305.899 39.7246V42.5015C306.197 43.0314 306.651 43.2964 307.264 43.2964C307.74 43.2964 308.118 43.1084 308.397 42.7324C308.68 42.3529 308.821 41.7907 308.821 41.0459ZM314.947 39.0103H312.267V44H311.268V38.1885H314.947V39.0103ZM319.51 44C319.452 43.8854 319.406 43.6813 319.37 43.3877C318.908 43.8675 318.357 44.1074 317.716 44.1074C317.143 44.1074 316.672 43.9463 316.303 43.624C315.938 43.2982 315.755 42.8864 315.755 42.3887C315.755 41.7835 315.984 41.3145 316.443 40.9814C316.905 40.6449 317.553 40.4766 318.387 40.4766H319.354V40.02C319.354 39.6727 319.25 39.397 319.042 39.1929C318.835 38.9852 318.528 38.8813 318.124 38.8813C317.769 38.8813 317.472 38.9709 317.232 39.1499C316.992 39.3289 316.872 39.5456 316.872 39.7998H315.873C315.873 39.5098 315.975 39.2305 316.179 38.9619C316.387 38.6898 316.666 38.4749 317.017 38.3174C317.372 38.1598 317.76 38.0811 318.183 38.0811C318.853 38.0811 319.377 38.2493 319.757 38.5859C320.136 38.9189 320.333 39.3791 320.347 39.9663V42.6411C320.347 43.1746 320.415 43.599 320.552 43.9141V44H319.51ZM317.861 43.2427C318.172 43.2427 318.468 43.1621 318.747 43.001C319.026 42.8398 319.228 42.6304 319.354 42.3726V41.1802H318.575C317.358 41.1802 316.749 41.5365 316.749 42.249C316.749 42.5605 316.853 42.804 317.06 42.9795C317.268 43.1549 317.535 43.2427 317.861 43.2427ZM326.763 44H325.769V41.5186H323.1V44H322.101V38.1885H323.1V40.7075H325.769V38.1885H326.763V44ZM332.233 38.1885H333.227V44H332.233V39.7622L329.553 44H328.56V38.1885H329.553V42.4316L332.233 38.1885ZM338.128 39.7783C338.128 39.5062 338.024 39.2913 337.817 39.1338C337.609 38.9727 337.324 38.8921 336.963 38.8921C336.612 38.8921 336.318 38.9834 336.082 39.166C335.849 39.3486 335.733 39.5635 335.733 39.8105H334.744C334.744 39.3057 334.956 38.8921 335.378 38.5698C335.801 38.2476 336.329 38.0864 336.963 38.0864C337.643 38.0864 338.173 38.2332 338.552 38.5269C338.932 38.8169 339.122 39.2323 339.122 39.7729C339.122 40.0343 339.043 40.2743 338.885 40.4927C338.728 40.7111 338.504 40.8848 338.214 41.0137C338.891 41.2428 339.229 41.694 339.229 42.3672C339.229 42.9007 339.023 43.3232 338.612 43.6348C338.2 43.9463 337.65 44.1021 336.963 44.1021C336.293 44.1021 335.74 43.9391 335.303 43.6133C334.87 43.2839 334.653 42.8398 334.653 42.2812H335.641C335.641 42.5641 335.767 42.8076 336.017 43.0117C336.272 43.2122 336.587 43.3125 336.963 43.3125C337.342 43.3125 337.648 43.2248 337.881 43.0493C338.114 42.8739 338.23 42.6465 338.23 42.3672C338.23 42.0413 338.132 41.8086 337.935 41.6689C337.741 41.5257 337.439 41.4541 337.027 41.4541H336.033V40.6162H337.113C337.79 40.5983 338.128 40.319 338.128 39.7783ZM344.216 44C344.159 43.8854 344.112 43.6813 344.077 43.3877C343.615 43.8675 343.063 44.1074 342.422 44.1074C341.849 44.1074 341.378 43.9463 341.01 43.624C340.644 43.2982 340.462 42.8864 340.462 42.3887C340.462 41.7835 340.691 41.3145 341.149 40.9814C341.611 40.6449 342.259 40.4766 343.094 40.4766H344.06V40.02C344.06 39.6727 343.957 39.397 343.749 39.1929C343.541 38.9852 343.235 38.8813 342.83 38.8813C342.476 38.8813 342.179 38.9709 341.939 39.1499C341.699 39.3289 341.579 39.5456 341.579 39.7998H340.58C340.58 39.5098 340.682 39.2305 340.886 38.9619C341.094 38.6898 341.373 38.4749 341.724 38.3174C342.078 38.1598 342.467 38.0811 342.89 38.0811C343.559 38.0811 344.084 38.2493 344.463 38.5859C344.843 38.9189 345.04 39.3791 345.054 39.9663V42.6411C345.054 43.1746 345.122 43.599 345.258 43.9141V44H344.216ZM342.567 43.2427C342.879 43.2427 343.174 43.1621 343.453 43.001C343.733 42.8398 343.935 42.6304 344.06 42.3726V41.1802H343.282C342.064 41.1802 341.455 41.5365 341.455 42.249C341.455 42.5605 341.559 42.804 341.767 42.9795C341.975 43.1549 342.241 43.2427 342.567 43.2427ZM346.808 38.1885H347.807V43.189H350.481V38.1885H351.475V43.189H352.168L352.071 45.7241H351.18V44H346.808V38.1885ZM357.112 38.1885H358.106V44H357.112V39.7622L354.432 44H353.438V38.1885H354.432V42.4316L357.112 38.1885ZM364.253 38.1885V44H363.254V41.7388H361.755L360.386 44H359.311L360.772 41.5884C360.4 41.4523 360.113 41.2428 359.913 40.96C359.716 40.6735 359.617 40.3405 359.617 39.9609C359.617 39.431 359.816 39.0049 360.214 38.6826C360.611 38.3568 361.143 38.1921 361.809 38.1885H364.253ZM360.616 39.9717C360.616 40.2546 360.713 40.4837 360.907 40.6592C361.1 40.8311 361.356 40.9188 361.675 40.9224H363.254V38.9941H361.825C361.456 38.9941 361.163 39.0854 360.944 39.2681C360.726 39.4471 360.616 39.6816 360.616 39.9717ZM199.226 54.959H195.95L195.214 57H194.15L197.137 49.1797H198.039L201.031 57H199.973L199.226 54.959ZM196.261 54.1104H198.92L197.588 50.4526L196.261 54.1104ZM204.369 56.2964C204.723 56.2964 205.033 56.189 205.298 55.9741C205.563 55.7593 205.71 55.4907 205.738 55.1685H206.678C206.66 55.5015 206.546 55.8184 206.335 56.1191C206.123 56.4199 205.84 56.6598 205.486 56.8389C205.135 57.0179 204.763 57.1074 204.369 57.1074C203.577 57.1074 202.947 56.8442 202.478 56.3179C202.013 55.7879 201.78 55.0646 201.78 54.1479V53.9814C201.78 53.4157 201.884 52.9126 202.091 52.4722C202.299 52.0317 202.596 51.6898 202.983 51.4463C203.373 51.2028 203.833 51.0811 204.363 51.0811C205.015 51.0811 205.556 51.2762 205.985 51.6665C206.419 52.0568 206.65 52.5635 206.678 53.1865H205.738C205.71 52.8105 205.567 52.5026 205.309 52.2627C205.054 52.0192 204.739 51.8975 204.363 51.8975C203.859 51.8975 203.466 52.0801 203.187 52.4453C202.911 52.807 202.774 53.3315 202.774 54.019V54.207C202.774 54.8766 202.911 55.3923 203.187 55.7539C203.463 56.1156 203.857 56.2964 204.369 56.2964ZM210.237 56.2964C210.591 56.2964 210.901 56.189 211.166 55.9741C211.431 55.7593 211.578 55.4907 211.606 55.1685H212.546C212.528 55.5015 212.414 55.8184 212.202 56.1191C211.991 56.4199 211.708 56.6598 211.354 56.8389C211.003 57.0179 210.63 57.1074 210.237 57.1074C209.445 57.1074 208.815 56.8442 208.346 56.3179C207.88 55.7879 207.648 55.0646 207.648 54.1479V53.9814C207.648 53.4157 207.752 52.9126 207.959 52.4722C208.167 52.0317 208.464 51.6898 208.851 51.4463C209.241 51.2028 209.701 51.0811 210.231 51.0811C210.883 51.0811 211.424 51.2762 211.853 51.6665C212.287 52.0568 212.518 52.5635 212.546 53.1865H211.606C211.578 52.8105 211.434 52.5026 211.177 52.2627C210.922 52.0192 210.607 51.8975 210.231 51.8975C209.726 51.8975 209.334 52.0801 209.055 52.4453C208.779 52.807 208.641 53.3315 208.641 54.019V54.207C208.641 54.8766 208.779 55.3923 209.055 55.7539C209.331 56.1156 209.725 56.2964 210.237 56.2964ZM213.51 54.0405C213.51 53.4712 213.621 52.9591 213.843 52.5044C214.069 52.0496 214.38 51.6987 214.778 51.4517C215.179 51.2046 215.635 51.0811 216.147 51.0811C216.939 51.0811 217.578 51.355 218.065 51.9028C218.555 52.4507 218.801 53.1794 218.801 54.0889V54.1587C218.801 54.7244 218.691 55.2329 218.473 55.6841C218.258 56.1317 217.948 56.4808 217.544 56.7314C217.143 56.9821 216.681 57.1074 216.158 57.1074C215.37 57.1074 214.731 56.8335 214.241 56.2856C213.754 55.7378 213.51 55.0127 213.51 54.1104V54.0405ZM214.509 54.1587C214.509 54.8032 214.658 55.3206 214.955 55.7109C215.256 56.1012 215.657 56.2964 216.158 56.2964C216.663 56.2964 217.064 56.0994 217.361 55.7056C217.658 55.3081 217.807 54.7531 217.807 54.0405C217.807 53.4032 217.655 52.8875 217.351 52.4937C217.05 52.0962 216.649 51.8975 216.147 51.8975C215.657 51.8975 215.261 52.0926 214.96 52.4829C214.66 52.8732 214.509 53.4318 214.509 54.1587ZM220.243 51.1885H221.242V56.189H223.917V51.1885H224.91V56.189H225.603L225.506 58.7241H224.615V57H220.243V51.1885ZM230.547 51.1885H231.541V57H230.547V52.7622L227.867 57H226.873V51.1885H227.867V55.4316L230.547 51.1885ZM236.834 57C236.777 56.8854 236.73 56.6813 236.694 56.3877C236.232 56.8675 235.681 57.1074 235.04 57.1074C234.467 57.1074 233.996 56.9463 233.627 56.624C233.262 56.2982 233.079 55.8864 233.079 55.3887C233.079 54.7835 233.309 54.3145 233.767 53.9814C234.229 53.6449 234.877 53.4766 235.711 53.4766H236.678V53.02C236.678 52.6727 236.574 52.397 236.367 52.1929C236.159 51.9852 235.853 51.8813 235.448 51.8813C235.094 51.8813 234.796 51.9709 234.556 52.1499C234.317 52.3289 234.197 52.5456 234.197 52.7998H233.198C233.198 52.5098 233.3 52.2305 233.504 51.9619C233.711 51.6898 233.991 51.4749 234.342 51.3174C234.696 51.1598 235.085 51.0811 235.507 51.0811C236.177 51.0811 236.701 51.2493 237.081 51.5859C237.46 51.9189 237.657 52.3791 237.672 52.9663V55.6411C237.672 56.1746 237.74 56.599 237.876 56.9141V57H236.834ZM235.185 56.2427C235.496 56.2427 235.792 56.1621 236.071 56.001C236.35 55.8398 236.553 55.6304 236.678 55.3726V54.1802H235.899C234.682 54.1802 234.073 54.5365 234.073 55.249C234.073 55.5605 234.177 55.804 234.385 55.9795C234.592 56.1549 234.859 56.2427 235.185 56.2427ZM239.425 51.1885H240.424V56.189H243.099V51.1885H244.093V56.189H244.786L244.689 58.7241H243.797V57H239.425V51.1885ZM249.73 51.1885H250.723V57H249.73V52.7622L247.049 57H246.056V51.1885H247.049V55.4316L249.73 51.1885ZM256.87 51.1885V57H255.871V54.7388H254.373L253.003 57H251.929L253.39 54.5884C253.018 54.4523 252.731 54.2428 252.531 53.96C252.334 53.6735 252.235 53.3405 252.235 52.9609C252.235 52.431 252.434 52.0049 252.831 51.6826C253.229 51.3568 253.761 51.1921 254.427 51.1885H256.87ZM253.234 52.9717C253.234 53.2546 253.331 53.4837 253.524 53.6592C253.718 53.8311 253.974 53.9188 254.292 53.9224H255.871V51.9941H254.443C254.074 51.9941 253.78 52.0854 253.562 52.2681C253.343 52.4471 253.234 52.6816 253.234 52.9717ZM263.224 54.5239H262.499V57H261.5V51.1885H262.499V53.6484H263.149L265.104 51.1885H266.307L264.008 53.9814L266.501 57H265.238L263.224 54.5239ZM272.229 51.1885V57H271.23V52.0103H269.253L269.135 54.1855C269.07 55.1846 268.902 55.8989 268.63 56.3286C268.362 56.7583 267.934 56.9821 267.346 57H266.949V56.1245L267.234 56.103C267.556 56.0672 267.787 55.881 267.926 55.5444C268.066 55.2078 268.156 54.5848 268.195 53.6753L268.302 51.1885H272.229ZM277.694 51.1885H278.687V57H277.694V52.7622L275.013 57H274.02V51.1885H275.013V55.4316L277.694 51.1885ZM285.141 57H284.147V54.5186H281.478V57H280.478V51.1885H281.478V53.7075H284.147V51.1885H285.141V57ZM290.611 51.1885H291.605V57H290.611V52.7622L287.931 57H286.937V51.1885H287.931V55.4316L290.611 51.1885ZM298.058 57H297.064V54.5186H294.395V57H293.396V51.1885H294.395V53.7075H297.064V51.1885H298.058V57ZM303.523 52.0103H300.843V57H299.844V51.1885H303.523V52.0103ZM304.127 54.0405C304.127 53.4712 304.238 52.9591 304.46 52.5044C304.686 52.0496 304.997 51.6987 305.395 51.4517C305.796 51.2046 306.252 51.0811 306.764 51.0811C307.556 51.0811 308.195 51.355 308.682 51.9028C309.172 52.4507 309.418 53.1794 309.418 54.0889V54.1587C309.418 54.7244 309.308 55.2329 309.09 55.6841C308.875 56.1317 308.565 56.4808 308.161 56.7314C307.76 56.9821 307.298 57.1074 306.775 57.1074C305.987 57.1074 305.348 56.8335 304.857 56.2856C304.37 55.7378 304.127 55.0127 304.127 54.1104V54.0405ZM305.126 54.1587C305.126 54.8032 305.275 55.3206 305.572 55.7109C305.873 56.1012 306.274 56.2964 306.775 56.2964C307.28 56.2964 307.681 56.0994 307.978 55.7056C308.275 55.3081 308.424 54.7531 308.424 54.0405C308.424 53.4032 308.272 52.8875 307.967 52.4937C307.667 52.0962 307.265 51.8975 306.764 51.8975C306.274 51.8975 305.878 52.0926 305.577 52.4829C305.276 52.8732 305.126 53.4318 305.126 54.1587ZM310.865 57V51.1885H313.132C313.905 51.1885 314.498 51.3245 314.909 51.5967C315.325 51.8652 315.532 52.2609 315.532 52.7837C315.532 53.0522 315.452 53.2957 315.291 53.5142C315.13 53.729 314.891 53.8937 314.576 54.0083C314.927 54.0907 315.208 54.2518 315.42 54.4917C315.634 54.7316 315.742 55.0181 315.742 55.3511C315.742 55.8846 315.545 56.2928 315.151 56.5757C314.761 56.8586 314.208 57 313.491 57H310.865ZM311.859 54.4487V56.1997H313.502C313.917 56.1997 314.227 56.1227 314.431 55.9688C314.639 55.8148 314.743 55.5981 314.743 55.3188C314.743 54.7388 314.317 54.4487 313.465 54.4487H311.859ZM311.859 53.6538H313.142C314.073 53.6538 314.539 53.3817 314.539 52.8374C314.539 52.2931 314.098 52.012 313.217 51.9941H311.859V53.6538ZM318.253 53.1919H319.762C320.421 53.1991 320.942 53.3709 321.325 53.7075C321.708 54.0441 321.9 54.5007 321.9 55.0771C321.9 55.6572 321.703 56.1227 321.309 56.4736C320.915 56.8245 320.385 57 319.719 57H317.259V51.1885H318.253V53.1919ZM323.973 57H322.974V51.1885H323.973V57ZM318.253 54.0029V56.189H319.73C320.102 56.189 320.39 56.0941 320.595 55.9043C320.799 55.7109 320.901 55.4478 320.901 55.1147C320.901 54.7925 320.8 54.5293 320.6 54.3252C320.403 54.1175 320.125 54.0101 319.767 54.0029H318.253ZM327.768 53.3101L329.057 51.1885H330.217L328.315 54.062L330.276 57H329.126L327.784 54.8247L326.441 57H325.286L327.247 54.062L325.345 51.1885H326.495L327.768 53.3101ZM198.512 64.1885H199.505V70H198.512V65.7622L195.832 70H194.838V64.1885H195.832V68.4316L198.512 64.1885ZM203.834 67.2017C203.834 66.2313 204.022 65.4686 204.398 64.9136C204.774 64.3586 205.29 64.0811 205.945 64.0811C206.249 64.0811 206.516 64.133 206.745 64.2368V61.75H207.739V64.269C207.99 64.1437 208.283 64.0811 208.62 64.0811C209.279 64.0811 209.796 64.3586 210.172 64.9136C210.548 65.4686 210.736 66.2689 210.736 67.3145C210.736 68.1702 210.548 68.8506 210.172 69.3555C209.8 69.8604 209.286 70.1128 208.631 70.1128C208.283 70.1128 207.986 70.0555 207.739 69.9409V72.2344H206.745V69.957C206.509 70.0609 206.239 70.1128 205.934 70.1128C205.283 70.1128 204.769 69.8604 204.393 69.3555C204.02 68.8506 203.834 68.1595 203.834 67.2822V67.2017ZM209.742 67.2017C209.742 66.4712 209.617 65.9054 209.366 65.5044C209.116 65.0998 208.77 64.8975 208.33 64.8975C208.104 64.8975 207.907 64.9333 207.739 65.0049V69.2104C207.9 69.2713 208.101 69.3018 208.341 69.3018C208.785 69.3018 209.128 69.1299 209.372 68.7861C209.619 68.4424 209.742 67.9142 209.742 67.2017ZM204.828 67.3145C204.828 67.9661 204.944 68.4603 205.177 68.7969C205.41 69.1335 205.745 69.3018 206.181 69.3018C206.389 69.3018 206.577 69.2695 206.745 69.2051V64.9888C206.595 64.9279 206.411 64.8975 206.192 64.8975C205.755 64.8975 205.419 65.0926 205.182 65.4829C204.946 65.8732 204.828 66.4837 204.828 67.3145ZM215.728 70C215.671 69.8854 215.625 69.6813 215.589 69.3877C215.127 69.8675 214.575 70.1074 213.934 70.1074C213.362 70.1074 212.891 69.9463 212.522 69.624C212.157 69.2982 211.974 68.8864 211.974 68.3887C211.974 67.7835 212.203 67.3145 212.662 66.9814C213.123 66.6449 213.772 66.4766 214.606 66.4766H215.573V66.02C215.573 65.6727 215.469 65.397 215.261 65.1929C215.053 64.9852 214.747 64.8813 214.343 64.8813C213.988 64.8813 213.691 64.9709 213.451 65.1499C213.211 65.3289 213.091 65.5456 213.091 65.7998H212.092C212.092 65.5098 212.194 65.2305 212.398 64.9619C212.606 64.6898 212.885 64.4749 213.236 64.3174C213.591 64.1598 213.979 64.0811 214.402 64.0811C215.071 64.0811 215.596 64.2493 215.976 64.5859C216.355 64.9189 216.552 65.3791 216.566 65.9663V68.6411C216.566 69.1746 216.634 69.599 216.77 69.9141V70H215.728ZM214.08 69.2427C214.391 69.2427 214.686 69.1621 214.966 69.001C215.245 68.8398 215.447 68.6304 215.573 68.3726V67.1802H214.794C213.576 67.1802 212.968 67.5365 212.968 68.249C212.968 68.5605 213.072 68.804 213.279 68.9795C213.487 69.1549 213.754 69.2427 214.08 69.2427ZM220.565 69.2964C220.919 69.2964 221.229 69.189 221.494 68.9741C221.759 68.7593 221.906 68.4907 221.935 68.1685H222.875C222.857 68.5015 222.742 68.8184 222.531 69.1191C222.32 69.4199 222.037 69.6598 221.682 69.8389C221.331 70.0179 220.959 70.1074 220.565 70.1074C219.774 70.1074 219.143 69.8442 218.674 69.3179C218.209 68.7879 217.976 68.0646 217.976 67.1479V66.9814C217.976 66.4157 218.08 65.9126 218.288 65.4722C218.495 65.0317 218.793 64.6898 219.179 64.4463C219.57 64.2028 220.03 64.0811 220.56 64.0811C221.211 64.0811 221.752 64.2762 222.182 64.6665C222.615 65.0568 222.846 65.5635 222.875 66.1865H221.935C221.906 65.8105 221.763 65.5026 221.505 65.2627C221.251 65.0192 220.936 64.8975 220.56 64.8975C220.055 64.8975 219.663 65.0801 219.383 65.4453C219.108 65.807 218.97 66.3315 218.97 67.019V67.207C218.97 67.8766 219.108 68.3923 219.383 68.7539C219.659 69.1156 220.053 69.2964 220.565 69.2964ZM227.862 64.1885H228.855V70H227.862V65.7622L225.181 70H224.188V64.1885H225.181V68.4316L227.862 64.1885ZM235.325 64.1885V70H234.326V65.0103H232.349L232.231 67.1855C232.166 68.1846 231.998 68.8989 231.726 69.3286C231.457 69.7583 231.029 69.9821 230.442 70H230.045V69.1245L230.329 69.103C230.652 69.0672 230.883 68.881 231.022 68.5444C231.162 68.2078 231.251 67.5848 231.291 66.6753L231.398 64.1885H235.325ZM240.79 64.1885H241.783V70H240.79V65.7622L238.109 70H237.116V64.1885H238.109V68.4316L240.79 64.1885ZM247.807 64.9941H245.857V70H244.863V64.9941H242.951V64.1885H247.807V64.9941ZM252.643 64.1885H253.637V70H252.643V65.7622L249.963 70H248.969V64.1885H249.963V68.4316L252.643 64.1885ZM257.918 67.0405C257.918 66.4712 258.029 65.9591 258.251 65.5044C258.476 65.0496 258.788 64.6987 259.185 64.4517C259.586 64.2046 260.043 64.0811 260.555 64.0811C261.346 64.0811 261.985 64.355 262.472 64.9028C262.963 65.4507 263.208 66.1794 263.208 67.0889V67.1587C263.208 67.7244 263.099 68.2329 262.88 68.6841C262.666 69.1317 262.356 69.4808 261.951 69.7314C261.55 69.9821 261.088 70.1074 260.565 70.1074C259.778 70.1074 259.139 69.8335 258.648 69.2856C258.161 68.7378 257.918 68.0127 257.918 67.1104V67.0405ZM258.917 67.1587C258.917 67.8032 259.065 68.3206 259.362 68.7109C259.663 69.1012 260.064 69.2964 260.565 69.2964C261.07 69.2964 261.471 69.0994 261.769 68.7056C262.066 68.3081 262.214 67.7531 262.214 67.0405C262.214 66.4032 262.062 65.8875 261.758 65.4937C261.457 65.0962 261.056 64.8975 260.555 64.8975C260.064 64.8975 259.668 65.0926 259.368 65.4829C259.067 65.8732 258.917 66.4318 258.917 67.1587ZM269.318 70H268.324V65.0103H265.649V70H264.65V64.1885H269.318V70ZM273.434 70.1074C272.647 70.1074 272.006 69.8496 271.512 69.334C271.017 68.8148 270.77 68.1219 270.77 67.2554V67.0728C270.77 66.4963 270.88 65.9824 271.098 65.5312C271.32 65.0765 271.628 64.722 272.022 64.4678C272.419 64.21 272.849 64.0811 273.311 64.0811C274.066 64.0811 274.654 64.3299 275.073 64.8276C275.492 65.3254 275.701 66.0379 275.701 66.9653V67.3789H271.764C271.778 67.9518 271.945 68.4155 272.263 68.77C272.586 69.1209 272.994 69.2964 273.488 69.2964C273.839 69.2964 274.136 69.2248 274.38 69.0815C274.623 68.9383 274.836 68.7485 275.019 68.5122L275.626 68.9849C275.139 69.7332 274.408 70.1074 273.434 70.1074ZM273.311 64.8975C272.91 64.8975 272.573 65.0443 272.301 65.3379C272.029 65.6279 271.861 66.0361 271.796 66.5625H274.707V66.4873C274.679 65.9824 274.543 65.5921 274.299 65.3164C274.056 65.0371 273.726 64.8975 273.311 64.8975ZM281.875 67.1587C281.875 68.0431 281.673 68.7557 281.268 69.2964C280.863 69.8371 280.316 70.1074 279.624 70.1074C278.919 70.1074 278.364 69.8836 277.959 69.436V72.2344H276.966V64.1885H277.873L277.922 64.833C278.326 64.3317 278.889 64.0811 279.608 64.0811C280.307 64.0811 280.858 64.3442 281.263 64.8706C281.671 65.397 281.875 66.1292 281.875 67.0674V67.1587ZM280.881 67.0459C280.881 66.3906 280.742 65.8732 280.462 65.4937C280.183 65.1141 279.8 64.9243 279.313 64.9243C278.711 64.9243 278.26 65.1911 277.959 65.7246V68.5015C278.257 69.0314 278.711 69.2964 279.324 69.2964C279.8 69.2964 280.178 69.1084 280.457 68.7324C280.74 68.3529 280.881 67.7907 280.881 67.0459ZM286.84 70C286.783 69.8854 286.737 69.6813 286.701 69.3877C286.239 69.8675 285.687 70.1074 285.046 70.1074C284.474 70.1074 284.003 69.9463 283.634 69.624C283.269 69.2982 283.086 68.8864 283.086 68.3887C283.086 67.7835 283.315 67.3145 283.774 66.9814C284.235 66.6449 284.884 66.4766 285.718 66.4766H286.685V66.02C286.685 65.6727 286.581 65.397 286.373 65.1929C286.165 64.9852 285.859 64.8813 285.455 64.8813C285.1 64.8813 284.803 64.9709 284.563 65.1499C284.323 65.3289 284.203 65.5456 284.203 65.7998H283.204C283.204 65.5098 283.306 65.2305 283.51 64.9619C283.718 64.6898 283.997 64.4749 284.348 64.3174C284.703 64.1598 285.091 64.0811 285.514 64.0811C286.183 64.0811 286.708 64.2493 287.088 64.5859C287.467 64.9189 287.664 65.3791 287.678 65.9663V68.6411C287.678 69.1746 287.746 69.599 287.882 69.9141V70H286.84ZM285.192 69.2427C285.503 69.2427 285.798 69.1621 286.078 69.001C286.357 68.8398 286.559 68.6304 286.685 68.3726V67.1802H285.906C284.688 67.1802 284.08 67.5365 284.08 68.249C284.08 68.5605 284.184 68.804 284.391 68.9795C284.599 69.1549 284.866 69.2427 285.192 69.2427ZM293.578 64.9941H291.629V70H290.635V64.9941H288.723V64.1885H293.578V64.9941ZM294.166 67.0405C294.166 66.4712 294.277 65.9591 294.499 65.5044C294.725 65.0496 295.037 64.6987 295.434 64.4517C295.835 64.2046 296.292 64.0811 296.804 64.0811C297.595 64.0811 298.234 64.355 298.721 64.9028C299.212 65.4507 299.457 66.1794 299.457 67.0889V67.1587C299.457 67.7244 299.348 68.2329 299.129 68.6841C298.914 69.1317 298.605 69.4808 298.2 69.7314C297.799 69.9821 297.337 70.1074 296.814 70.1074C296.027 70.1074 295.387 69.8335 294.897 69.2856C294.41 68.7378 294.166 68.0127 294.166 67.1104V67.0405ZM295.165 67.1587C295.165 67.8032 295.314 68.3206 295.611 68.7109C295.912 69.1012 296.313 69.2964 296.814 69.2964C297.319 69.2964 297.72 69.0994 298.017 68.7056C298.315 68.3081 298.463 67.7531 298.463 67.0405C298.463 66.4032 298.311 65.8875 298.007 65.4937C297.706 65.0962 297.305 64.8975 296.804 64.8975C296.313 64.8975 295.917 65.0926 295.617 65.4829C295.316 65.8732 295.165 66.4318 295.165 67.1587ZM305.722 67.1587C305.722 68.0431 305.52 68.7557 305.115 69.2964C304.711 69.8371 304.163 70.1074 303.472 70.1074C302.766 70.1074 302.211 69.8836 301.807 69.436V72.2344H300.813V64.1885H301.721L301.769 64.833C302.174 64.3317 302.736 64.0811 303.456 64.0811C304.154 64.0811 304.705 64.3442 305.11 64.8706C305.518 65.397 305.722 66.1292 305.722 67.0674V67.1587ZM304.729 67.0459C304.729 66.3906 304.589 65.8732 304.31 65.4937C304.03 65.1141 303.647 64.9243 303.16 64.9243C302.559 64.9243 302.107 65.1911 301.807 65.7246V68.5015C302.104 69.0314 302.559 69.2964 303.171 69.2964C303.647 69.2964 304.025 69.1084 304.304 68.7324C304.587 68.3529 304.729 67.7907 304.729 67.0459ZM306.837 67.0405C306.837 66.4712 306.948 65.9591 307.17 65.5044C307.395 65.0496 307.707 64.6987 308.104 64.4517C308.505 64.2046 308.962 64.0811 309.474 64.0811C310.265 64.0811 310.904 64.355 311.391 64.9028C311.882 65.4507 312.127 66.1794 312.127 67.0889V67.1587C312.127 67.7244 312.018 68.2329 311.799 68.6841C311.585 69.1317 311.275 69.4808 310.87 69.7314C310.469 69.9821 310.007 70.1074 309.485 70.1074C308.697 70.1074 308.058 69.8335 307.567 69.2856C307.08 68.7378 306.837 68.0127 306.837 67.1104V67.0405ZM307.836 67.1587C307.836 67.8032 307.984 68.3206 308.281 68.7109C308.582 69.1012 308.983 69.2964 309.485 69.2964C309.989 69.2964 310.39 69.0994 310.688 68.7056C310.985 68.3081 311.133 67.7531 311.133 67.0405C311.133 66.4032 310.981 65.8875 310.677 65.4937C310.376 65.0962 309.975 64.8975 309.474 64.8975C308.983 64.8975 308.588 65.0926 308.287 65.4829C307.986 65.8732 307.836 66.4318 307.836 67.1587ZM313.575 70V64.1885H315.841C316.615 64.1885 317.207 64.3245 317.619 64.5967C318.034 64.8652 318.242 65.2609 318.242 65.7837C318.242 66.0522 318.161 66.2957 318 66.5142C317.839 66.729 317.601 66.8937 317.286 67.0083C317.637 67.0907 317.918 67.2518 318.129 67.4917C318.344 67.7316 318.451 68.0181 318.451 68.3511C318.451 68.8846 318.255 69.2928 317.861 69.5757C317.47 69.8586 316.917 70 316.201 70H313.575ZM314.568 67.4487V69.1997H316.212C316.627 69.1997 316.937 69.1227 317.141 68.9688C317.349 68.8148 317.452 68.5981 317.452 68.3188C317.452 67.7388 317.026 67.4487 316.174 67.4487H314.568ZM314.568 66.6538H315.852C316.783 66.6538 317.248 66.3817 317.248 65.8374C317.248 65.2931 316.808 65.012 315.927 64.9941H314.568V66.6538Z" fill="#FFFDFA"/>
</g>
<path d="M71.32 22C71.24 22 71.172 21.976 71.116 21.928C71.068 21.872 71.044 21.804 71.044 21.724V13.888C71.044 13.8 71.068 13.732 71.116 13.684C71.172 13.628 71.24 13.6 71.32 13.6H71.92C72.016 13.6 72.088 13.624 72.136 13.672C72.184 13.72 72.212 13.76 72.22 13.792L74.764 18.64L77.32 13.792C77.336 13.76 77.364 13.72 77.404 13.672C77.452 13.624 77.524 13.6 77.62 13.6H78.208C78.296 13.6 78.364 13.628 78.412 13.684C78.468 13.732 78.496 13.8 78.496 13.888V21.724C78.496 21.804 78.468 21.872 78.412 21.928C78.364 21.976 78.296 22 78.208 22H77.62C77.54 22 77.472 21.976 77.416 21.928C77.368 21.872 77.344 21.804 77.344 21.724V15.82L75.34 19.732C75.308 19.812 75.26 19.876 75.196 19.924C75.132 19.964 75.052 19.984 74.956 19.984H74.584C74.48 19.984 74.396 19.964 74.332 19.924C74.276 19.876 74.228 19.812 74.188 19.732L72.184 15.82V21.724C72.184 21.804 72.156 21.872 72.1 21.928C72.052 21.976 71.988 22 71.908 22H71.32ZM80.8473 22C80.7593 22 80.6913 21.976 80.6433 21.928C80.5953 21.872 80.5713 21.804 80.5713 21.724V13.876C80.5713 13.796 80.5953 13.732 80.6433 13.684C80.6913 13.628 80.7593 13.6 80.8473 13.6H81.4593C81.5473 13.6 81.6153 13.628 81.6633 13.684C81.7193 13.732 81.7473 13.796 81.7473 13.876V16.792H83.2833C84.1553 16.792 84.8273 17.012 85.2993 17.452C85.7793 17.884 86.0193 18.52 86.0193 19.36C86.0193 19.816 85.9193 20.248 85.7193 20.656C85.5273 21.056 85.2273 21.38 84.8193 21.628C84.4113 21.876 83.8993 22 83.2833 22H80.8473ZM81.7473 20.992H83.1873C83.7073 20.992 84.1073 20.84 84.3873 20.536C84.6753 20.232 84.8193 19.832 84.8193 19.336C84.8193 18.824 84.6833 18.44 84.4113 18.184C84.1393 17.92 83.7313 17.788 83.1873 17.788H81.7473V20.992ZM87.4473 22C87.3593 22 87.2913 21.976 87.2433 21.928C87.1953 21.872 87.1713 21.804 87.1713 21.724V13.876C87.1713 13.796 87.1953 13.732 87.2433 13.684C87.2913 13.628 87.3593 13.6 87.4473 13.6H88.0833C88.1633 13.6 88.2273 13.628 88.2753 13.684C88.3313 13.732 88.3593 13.796 88.3593 13.876V21.724C88.3593 21.804 88.3313 21.872 88.2753 21.928C88.2273 21.976 88.1633 22 88.0833 22H87.4473ZM98.3357 22C98.2557 22 98.1877 21.976 98.1317 21.928C98.0757 21.872 98.0477 21.804 98.0477 21.724V18.808H96.1157C95.5637 18.808 95.0877 18.708 94.6877 18.508C94.2957 18.308 93.9917 18.016 93.7757 17.632C93.5677 17.248 93.4637 16.78 93.4637 16.228C93.4637 15.78 93.5597 15.356 93.7517 14.956C93.9517 14.556 94.2517 14.232 94.6517 13.984C95.0597 13.728 95.5757 13.6 96.1997 13.6H98.9477C99.0277 13.6 99.0917 13.628 99.1397 13.684C99.1957 13.732 99.2237 13.796 99.2237 13.876V21.724C99.2237 21.804 99.1957 21.872 99.1397 21.928C99.0917 21.976 99.0277 22 98.9477 22H98.3357ZM93.5477 22C93.4837 22 93.4277 21.976 93.3797 21.928C93.3317 21.88 93.3077 21.824 93.3077 21.76C93.3077 21.72 93.3197 21.676 93.3437 21.628L95.4797 18.268L96.6317 18.448L94.5917 21.676C94.5437 21.756 94.4877 21.832 94.4237 21.904C94.3597 21.968 94.2597 22 94.1237 22H93.5477ZM96.2957 17.8H98.0477V14.608H96.2957C95.7757 14.608 95.3717 14.76 95.0837 15.064C94.8037 15.368 94.6637 15.764 94.6637 16.252C94.6637 16.764 94.7957 17.152 95.0597 17.416C95.3317 17.672 95.7437 17.8 96.2957 17.8ZM101.59 22C101.502 22 101.434 21.976 101.386 21.928C101.338 21.872 101.314 21.804 101.314 21.724V13.888C101.314 13.8 101.338 13.732 101.386 13.684C101.434 13.628 101.502 13.6 101.59 13.6H104.878C105.478 13.6 105.966 13.7 106.342 13.9C106.726 14.092 107.006 14.356 107.182 14.692C107.366 15.028 107.458 15.404 107.458 15.82C107.458 16.148 107.402 16.432 107.29 16.672C107.186 16.904 107.054 17.096 106.894 17.248C106.734 17.392 106.578 17.504 106.426 17.584C106.738 17.736 107.014 17.984 107.254 18.328C107.502 18.672 107.626 19.088 107.626 19.576C107.626 20.016 107.526 20.42 107.326 20.788C107.126 21.156 106.826 21.452 106.426 21.676C106.034 21.892 105.546 22 104.962 22H101.59ZM102.49 21.028H104.806C105.326 21.028 105.726 20.888 106.006 20.608C106.286 20.328 106.426 19.984 106.426 19.576C106.426 19.152 106.286 18.804 106.006 18.532C105.726 18.252 105.326 18.112 104.806 18.112H102.49V21.028ZM102.49 17.152H104.698C105.21 17.152 105.598 17.036 105.862 16.804C106.126 16.564 106.258 16.24 106.258 15.832C106.258 15.424 106.126 15.112 105.862 14.896C105.598 14.68 105.21 14.572 104.698 14.572H102.49V17.152ZM114.801 22C114.721 22 114.653 21.976 114.597 21.928C114.549 21.872 114.525 21.804 114.525 21.724V14.68H111.549V16.612C111.549 17.572 111.497 18.392 111.393 19.072C111.289 19.744 111.129 20.292 110.913 20.716C110.697 21.132 110.417 21.444 110.073 21.652C109.737 21.852 109.329 21.964 108.849 21.988C108.769 21.996 108.701 21.972 108.645 21.916C108.589 21.86 108.561 21.788 108.561 21.7V21.172C108.561 21.012 108.645 20.92 108.813 20.896C109.061 20.856 109.281 20.748 109.473 20.572C109.673 20.396 109.841 20.136 109.977 19.792C110.113 19.44 110.217 18.992 110.289 18.448C110.361 17.896 110.397 17.236 110.397 16.468V13.876C110.397 13.796 110.421 13.732 110.469 13.684C110.525 13.628 110.593 13.6 110.673 13.6H115.413C115.501 13.6 115.569 13.628 115.617 13.684C115.673 13.732 115.701 13.8 115.701 13.888V21.724C115.701 21.804 115.673 21.872 115.617 21.928C115.569 21.976 115.501 22 115.413 22H114.801ZM122.734 22C122.654 22 122.586 21.976 122.53 21.928C122.474 21.872 122.446 21.804 122.446 21.724V18.808H120.514C119.962 18.808 119.486 18.708 119.086 18.508C118.694 18.308 118.39 18.016 118.174 17.632C117.966 17.248 117.862 16.78 117.862 16.228C117.862 15.78 117.958 15.356 118.15 14.956C118.35 14.556 118.65 14.232 119.05 13.984C119.458 13.728 119.974 13.6 120.598 13.6H123.346C123.426 13.6 123.49 13.628 123.538 13.684C123.594 13.732 123.622 13.796 123.622 13.876V21.724C123.622 21.804 123.594 21.872 123.538 21.928C123.49 21.976 123.426 22 123.346 22H122.734ZM117.946 22C117.882 22 117.826 21.976 117.778 21.928C117.73 21.88 117.706 21.824 117.706 21.76C117.706 21.72 117.718 21.676 117.742 21.628L119.878 18.268L121.03 18.448L118.99 21.676C118.942 21.756 118.886 21.832 118.822 21.904C118.758 21.968 118.658 22 118.522 22H117.946ZM120.694 17.8H122.446V14.608H120.694C120.174 14.608 119.77 14.76 119.482 15.064C119.202 15.368 119.062 15.764 119.062 16.252C119.062 16.764 119.194 17.152 119.458 17.416C119.73 17.672 120.142 17.8 120.694 17.8ZM125.988 22C125.9 22 125.832 21.976 125.784 21.928C125.736 21.872 125.712 21.804 125.712 21.724V13.888C125.712 13.8 125.736 13.732 125.784 13.684C125.832 13.628 125.9 13.6 125.988 13.6H130.944C131.032 13.6 131.1 13.628 131.148 13.684C131.196 13.732 131.22 13.8 131.22 13.888V14.344C131.22 14.432 131.196 14.5 131.148 14.548C131.1 14.596 131.032 14.62 130.944 14.62H126.864V17.248H130.68C130.768 17.248 130.836 17.276 130.884 17.332C130.932 17.38 130.956 17.448 130.956 17.536V17.98C130.956 18.06 130.932 18.128 130.884 18.184C130.836 18.232 130.768 18.256 130.68 18.256H126.864V20.98H131.04C131.128 20.98 131.196 21.004 131.244 21.052C131.292 21.1 131.316 21.168 131.316 21.256V21.724C131.316 21.804 131.292 21.872 131.244 21.928C131.196 21.976 131.128 22 131.04 22H125.988ZM133.265 22C133.185 22 133.117 21.976 133.061 21.928C133.013 21.872 132.989 21.804 132.989 21.724V13.888C132.989 13.8 133.013 13.732 133.061 13.684C133.117 13.628 133.185 13.6 133.265 13.6H133.865C133.961 13.6 134.033 13.624 134.081 13.672C134.129 13.72 134.157 13.76 134.165 13.792L136.709 18.64L139.265 13.792C139.281 13.76 139.309 13.72 139.349 13.672C139.397 13.624 139.469 13.6 139.565 13.6H140.153C140.241 13.6 140.309 13.628 140.357 13.684C140.413 13.732 140.441 13.8 140.441 13.888V21.724C140.441 21.804 140.413 21.872 140.357 21.928C140.309 21.976 140.241 22 140.153 22H139.565C139.485 22 139.417 21.976 139.361 21.928C139.313 21.872 139.289 21.804 139.289 21.724V15.82L137.285 19.732C137.253 19.812 137.205 19.876 137.141 19.924C137.077 19.964 136.997 19.984 136.901 19.984H136.529C136.425 19.984 136.341 19.964 136.277 19.924C136.221 19.876 136.173 19.812 136.133 19.732L134.129 15.82V21.724C134.129 21.804 134.101 21.872 134.045 21.928C133.997 21.976 133.933 22 133.853 22H133.265ZM145.541 22.12C144.805 22.12 144.193 21.984 143.705 21.712C143.225 21.44 142.861 21.06 142.613 20.572C142.365 20.084 142.229 19.516 142.205 18.868C142.197 18.54 142.193 18.188 142.193 17.812C142.193 17.436 142.197 17.076 142.205 16.732C142.229 16.084 142.365 15.516 142.613 15.028C142.861 14.54 143.225 14.16 143.705 13.888C144.193 13.616 144.805 13.48 145.541 13.48C146.093 13.48 146.577 13.556 146.993 13.708C147.409 13.86 147.753 14.064 148.025 14.32C148.305 14.576 148.517 14.864 148.661 15.184C148.805 15.496 148.885 15.82 148.901 16.156C148.909 16.228 148.885 16.288 148.829 16.336C148.781 16.384 148.721 16.408 148.649 16.408H147.989C147.917 16.408 147.853 16.388 147.797 16.348C147.749 16.308 147.713 16.236 147.689 16.132C147.553 15.508 147.297 15.08 146.921 14.848C146.553 14.616 146.089 14.5 145.529 14.5C144.889 14.5 144.381 14.684 144.005 15.052C143.629 15.412 143.425 15.992 143.393 16.792C143.369 17.448 143.369 18.12 143.393 18.808C143.425 19.608 143.629 20.192 144.005 20.56C144.381 20.92 144.889 21.1 145.529 21.1C146.089 21.1 146.553 20.984 146.921 20.752C147.297 20.52 147.553 20.092 147.689 19.468C147.713 19.364 147.749 19.292 147.797 19.252C147.853 19.212 147.917 19.192 147.989 19.192H148.649C148.721 19.192 148.781 19.216 148.829 19.264C148.885 19.312 148.909 19.372 148.901 19.444C148.885 19.78 148.805 20.108 148.661 20.428C148.517 20.74 148.305 21.024 148.025 21.28C147.753 21.536 147.409 21.74 146.993 21.892C146.577 22.044 146.093 22.12 145.541 22.12ZM155.453 22C155.373 22 155.305 21.976 155.249 21.928C155.193 21.872 155.165 21.804 155.165 21.724V18.808H153.233C152.681 18.808 152.205 18.708 151.805 18.508C151.413 18.308 151.109 18.016 150.893 17.632C150.685 17.248 150.581 16.78 150.581 16.228C150.581 15.78 150.677 15.356 150.869 14.956C151.069 14.556 151.369 14.232 151.769 13.984C152.177 13.728 152.693 13.6 153.317 13.6H156.065C156.145 13.6 156.209 13.628 156.257 13.684C156.313 13.732 156.341 13.796 156.341 13.876V21.724C156.341 21.804 156.313 21.872 156.257 21.928C156.209 21.976 156.145 22 156.065 22H155.453ZM150.665 22C150.601 22 150.545 21.976 150.497 21.928C150.449 21.88 150.425 21.824 150.425 21.76C150.425 21.72 150.437 21.676 150.461 21.628L152.597 18.268L153.749 18.448L151.709 21.676C151.661 21.756 151.605 21.832 151.541 21.904C151.477 21.968 151.377 22 151.241 22H150.665ZM153.413 17.8H155.165V14.608H153.413C152.893 14.608 152.489 14.76 152.201 15.064C151.921 15.368 151.781 15.764 151.781 16.252C151.781 16.764 151.913 17.152 152.177 17.416C152.449 17.672 152.861 17.8 153.413 17.8ZM166.22 22C166.132 22 166.064 21.976 166.016 21.928C165.968 21.872 165.944 21.804 165.944 21.724V18.64C165.824 18.776 165.644 18.892 165.404 18.988C165.164 19.076 164.904 19.14 164.624 19.18C164.352 19.22 164.088 19.24 163.832 19.24C162.864 19.24 162.148 19.02 161.684 18.58C161.228 18.132 161 17.484 161 16.636V13.876C161 13.796 161.024 13.732 161.072 13.684C161.128 13.628 161.196 13.6 161.276 13.6H161.888C161.976 13.6 162.044 13.628 162.092 13.684C162.148 13.732 162.176 13.796 162.176 13.876V16.564C162.176 17.1 162.316 17.5 162.596 17.764C162.876 18.02 163.356 18.148 164.036 18.148C164.22 18.148 164.42 18.132 164.636 18.1C164.852 18.068 165.06 18.008 165.26 17.92C165.46 17.824 165.624 17.696 165.752 17.536C165.88 17.376 165.944 17.172 165.944 16.924V13.876C165.944 13.796 165.968 13.732 166.016 13.684C166.064 13.628 166.132 13.6 166.22 13.6H166.832C166.92 13.6 166.988 13.628 167.036 13.684C167.092 13.732 167.12 13.796 167.12 13.876V21.724C167.12 21.804 167.092 21.872 167.036 21.928C166.988 21.976 166.92 22 166.832 22H166.22ZM174.696 22C174.616 22 174.548 21.976 174.492 21.928C174.444 21.872 174.42 21.804 174.42 21.724V14.68H171.444V16.612C171.444 17.572 171.392 18.392 171.288 19.072C171.184 19.744 171.024 20.292 170.808 20.716C170.592 21.132 170.312 21.444 169.968 21.652C169.632 21.852 169.224 21.964 168.744 21.988C168.664 21.996 168.596 21.972 168.54 21.916C168.484 21.86 168.456 21.788 168.456 21.7V21.172C168.456 21.012 168.54 20.92 168.708 20.896C168.956 20.856 169.176 20.748 169.368 20.572C169.568 20.396 169.736 20.136 169.872 19.792C170.008 19.44 170.112 18.992 170.184 18.448C170.256 17.896 170.292 17.236 170.292 16.468V13.876C170.292 13.796 170.316 13.732 170.364 13.684C170.42 13.628 170.488 13.6 170.568 13.6H175.308C175.396 13.6 175.464 13.628 175.512 13.684C175.568 13.732 175.596 13.8 175.596 13.888V21.724C175.596 21.804 175.568 21.872 175.512 21.928C175.464 21.976 175.396 22 175.308 22H174.696ZM177.961 22C177.873 22 177.805 21.976 177.757 21.928C177.709 21.872 177.685 21.804 177.685 21.724V13.888C177.685 13.8 177.709 13.732 177.757 13.684C177.805 13.628 177.873 13.6 177.961 13.6H182.917C183.005 13.6 183.073 13.628 183.121 13.684C183.169 13.732 183.193 13.8 183.193 13.888V14.344C183.193 14.432 183.169 14.5 183.121 14.548C183.073 14.596 183.005 14.62 182.917 14.62H178.837V17.248H182.653C182.741 17.248 182.809 17.276 182.857 17.332C182.905 17.38 182.929 17.448 182.929 17.536V17.98C182.929 18.06 182.905 18.128 182.857 18.184C182.809 18.232 182.741 18.256 182.653 18.256H178.837V20.98H183.013C183.101 20.98 183.169 21.004 183.217 21.052C183.265 21.1 183.289 21.168 183.289 21.256V21.724C183.289 21.804 183.265 21.872 183.217 21.928C183.169 21.976 183.101 22 183.013 22H177.961ZM185.238 22C185.15 22 185.082 21.976 185.034 21.928C184.986 21.872 184.962 21.804 184.962 21.724V13.888C184.962 13.8 184.986 13.732 185.034 13.684C185.082 13.628 185.15 13.6 185.238 13.6H185.85C185.938 13.6 186.006 13.628 186.054 13.684C186.11 13.732 186.138 13.8 186.138 13.888V17.2H190.266V13.888C190.266 13.8 190.29 13.732 190.338 13.684C190.394 13.628 190.462 13.6 190.542 13.6H191.154C191.242 13.6 191.31 13.628 191.358 13.684C191.414 13.732 191.442 13.8 191.442 13.888V21.724C191.442 21.804 191.414 21.872 191.358 21.928C191.31 21.976 191.242 22 191.154 22H190.542C190.462 22 190.394 21.976 190.338 21.928C190.29 21.872 190.266 21.804 190.266 21.724V18.28H186.138V21.724C186.138 21.804 186.11 21.872 186.054 21.928C186.006 21.976 185.938 22 185.85 22H185.238ZM196.529 22.12C195.849 22.12 195.265 22.004 194.777 21.772C194.289 21.532 193.913 21.168 193.649 20.68C193.385 20.184 193.237 19.564 193.205 18.82C193.197 18.468 193.193 18.132 193.193 17.812C193.193 17.484 193.197 17.144 193.205 16.792C193.237 16.056 193.389 15.444 193.661 14.956C193.941 14.46 194.325 14.092 194.813 13.852C195.309 13.604 195.881 13.48 196.529 13.48C197.185 13.48 197.757 13.604 198.245 13.852C198.741 14.092 199.129 14.46 199.409 14.956C199.689 15.444 199.841 16.056 199.865 16.792C199.881 17.144 199.889 17.484 199.889 17.812C199.889 18.132 199.881 18.468 199.865 18.82C199.841 19.564 199.693 20.184 199.421 20.68C199.157 21.168 198.781 21.532 198.293 21.772C197.805 22.004 197.217 22.12 196.529 22.12ZM196.529 21.1C197.145 21.1 197.645 20.916 198.029 20.548C198.421 20.18 198.633 19.584 198.665 18.76C198.681 18.4 198.689 18.08 198.689 17.8C198.689 17.512 198.681 17.192 198.665 16.84C198.649 16.288 198.545 15.84 198.353 15.496C198.169 15.152 197.921 14.9 197.609 14.74C197.297 14.58 196.937 14.5 196.529 14.5C196.137 14.5 195.785 14.58 195.473 14.74C195.161 14.9 194.909 15.152 194.717 15.496C194.533 15.84 194.429 16.288 194.405 16.84C194.397 17.192 194.393 17.512 194.393 17.8C194.393 18.08 194.397 18.4 194.405 18.76C194.437 19.584 194.649 20.18 195.041 20.548C195.433 20.916 195.929 21.1 196.529 21.1ZM201.914 22C201.834 22 201.766 21.976 201.71 21.928C201.662 21.872 201.638 21.804 201.638 21.724V13.888C201.638 13.8 201.662 13.732 201.71 13.684C201.766 13.628 201.834 13.6 201.914 13.6H202.514C202.61 13.6 202.682 13.624 202.73 13.672C202.778 13.72 202.806 13.76 202.814 13.792L205.358 18.64L207.914 13.792C207.93 13.76 207.958 13.72 207.998 13.672C208.046 13.624 208.118 13.6 208.214 13.6H208.802C208.89 13.6 208.958 13.628 209.006 13.684C209.062 13.732 209.09 13.8 209.09 13.888V21.724C209.09 21.804 209.062 21.872 209.006 21.928C208.958 21.976 208.89 22 208.802 22H208.214C208.134 22 208.066 21.976 208.01 21.928C207.962 21.872 207.938 21.804 207.938 21.724V15.82L205.934 19.732C205.902 19.812 205.854 19.876 205.79 19.924C205.726 19.964 205.646 19.984 205.55 19.984H205.178C205.074 19.984 204.99 19.964 204.926 19.924C204.87 19.876 204.822 19.812 204.782 19.732L202.778 15.82V21.724C202.778 21.804 202.75 21.872 202.694 21.928C202.646 21.976 202.582 22 202.502 22H201.914ZM217.131 22.12C216.395 22.12 215.783 21.984 215.295 21.712C214.815 21.44 214.451 21.06 214.203 20.572C213.955 20.084 213.819 19.516 213.795 18.868C213.787 18.54 213.783 18.188 213.783 17.812C213.783 17.436 213.787 17.076 213.795 16.732C213.819 16.084 213.955 15.516 214.203 15.028C214.451 14.54 214.815 14.16 215.295 13.888C215.783 13.616 216.395 13.48 217.131 13.48C217.683 13.48 218.167 13.556 218.583 13.708C218.999 13.86 219.343 14.064 219.615 14.32C219.895 14.576 220.107 14.864 220.251 15.184C220.395 15.496 220.475 15.82 220.491 16.156C220.499 16.228 220.475 16.288 220.419 16.336C220.371 16.384 220.311 16.408 220.239 16.408H219.579C219.507 16.408 219.443 16.388 219.387 16.348C219.339 16.308 219.303 16.236 219.279 16.132C219.143 15.508 218.887 15.08 218.511 14.848C218.143 14.616 217.679 14.5 217.119 14.5C216.479 14.5 215.971 14.684 215.595 15.052C215.219 15.412 215.015 15.992 214.983 16.792C214.959 17.448 214.959 18.12 214.983 18.808C215.015 19.608 215.219 20.192 215.595 20.56C215.971 20.92 216.479 21.1 217.119 21.1C217.679 21.1 218.143 20.984 218.511 20.752C218.887 20.52 219.143 20.092 219.279 19.468C219.303 19.364 219.339 19.292 219.387 19.252C219.443 19.212 219.507 19.192 219.579 19.192H220.239C220.311 19.192 220.371 19.216 220.419 19.264C220.475 19.312 220.499 19.372 220.491 19.444C220.475 19.78 220.395 20.108 220.251 20.428C220.107 20.74 219.895 21.024 219.615 21.28C219.343 21.536 218.999 21.74 218.583 21.892C218.167 22.044 217.683 22.12 217.131 22.12ZM222.375 22C222.287 22 222.219 21.976 222.171 21.928C222.123 21.872 222.099 21.804 222.099 21.724V13.888C222.099 13.8 222.123 13.732 222.171 13.684C222.219 13.628 222.287 13.6 222.375 13.6H225.423C226.015 13.6 226.527 13.696 226.959 13.888C227.399 14.08 227.739 14.368 227.979 14.752C228.219 15.128 228.339 15.6 228.339 16.168C228.339 16.736 228.219 17.208 227.979 17.584C227.739 17.96 227.399 18.244 226.959 18.436C226.527 18.628 226.015 18.724 225.423 18.724H223.299V21.724C223.299 21.804 223.271 21.872 223.215 21.928C223.167 21.976 223.099 22 223.011 22H222.375ZM223.287 17.716H225.363C225.955 17.716 226.399 17.584 226.695 17.32C226.991 17.056 227.139 16.672 227.139 16.168C227.139 15.672 226.995 15.288 226.707 15.016C226.419 14.744 225.971 14.608 225.363 14.608H223.287V17.716ZM232.81 22.12C232.13 22.12 231.546 22.004 231.058 21.772C230.57 21.532 230.194 21.168 229.93 20.68C229.666 20.184 229.518 19.564 229.486 18.82C229.478 18.468 229.474 18.132 229.474 17.812C229.474 17.484 229.478 17.144 229.486 16.792C229.518 16.056 229.67 15.444 229.942 14.956C230.222 14.46 230.606 14.092 231.094 13.852C231.59 13.604 232.162 13.48 232.81 13.48C233.466 13.48 234.038 13.604 234.526 13.852C235.022 14.092 235.41 14.46 235.69 14.956C235.97 15.444 236.122 16.056 236.146 16.792C236.162 17.144 236.17 17.484 236.17 17.812C236.17 18.132 236.162 18.468 236.146 18.82C236.122 19.564 235.974 20.184 235.702 20.68C235.438 21.168 235.062 21.532 234.574 21.772C234.086 22.004 233.498 22.12 232.81 22.12ZM232.81 21.1C233.426 21.1 233.926 20.916 234.31 20.548C234.702 20.18 234.914 19.584 234.946 18.76C234.962 18.4 234.97 18.08 234.97 17.8C234.97 17.512 234.962 17.192 234.946 16.84C234.93 16.288 234.826 15.84 234.634 15.496C234.45 15.152 234.202 14.9 233.89 14.74C233.578 14.58 233.218 14.5 232.81 14.5C232.418 14.5 232.066 14.58 231.754 14.74C231.442 14.9 231.19 15.152 230.998 15.496C230.814 15.84 230.71 16.288 230.686 16.84C230.678 17.192 230.674 17.512 230.674 17.8C230.674 18.08 230.678 18.4 230.686 18.76C230.718 19.584 230.93 20.18 231.322 20.548C231.714 20.916 232.21 21.1 232.81 21.1ZM240.296 22C240.232 22 240.176 21.976 240.128 21.928C240.08 21.88 240.056 21.824 240.056 21.76C240.056 21.72 240.06 21.676 240.068 21.628L243.044 13.864C243.076 13.784 243.12 13.72 243.176 13.672C243.232 13.624 243.316 13.6 243.428 13.6H244.244C244.348 13.6 244.428 13.624 244.484 13.672C244.548 13.72 244.596 13.784 244.628 13.864L247.592 21.628C247.608 21.676 247.616 21.72 247.616 21.76C247.616 21.824 247.592 21.88 247.544 21.928C247.496 21.976 247.44 22 247.376 22H246.764C246.668 22 246.596 21.976 246.548 21.928C246.508 21.88 246.48 21.836 246.464 21.796L245.804 20.092H241.868L241.208 21.796C241.2 21.836 241.172 21.88 241.124 21.928C241.076 21.976 241.004 22 240.908 22H240.296ZM242.216 19.06H245.456L243.836 14.8L242.216 19.06ZM249.175 22C249.087 22 249.019 21.976 248.971 21.928C248.923 21.872 248.899 21.804 248.899 21.724V13.888C248.899 13.8 248.923 13.732 248.971 13.684C249.019 13.628 249.087 13.6 249.175 13.6H249.787C249.875 13.6 249.943 13.628 249.991 13.684C250.047 13.732 250.075 13.8 250.075 13.888V17.2H251.431L253.567 13.792C253.607 13.728 253.659 13.68 253.723 13.648C253.787 13.616 253.871 13.6 253.975 13.6H254.623C254.711 13.6 254.775 13.624 254.815 13.672C254.855 13.72 254.875 13.776 254.875 13.84C254.875 13.888 254.855 13.94 254.815 13.996L252.511 17.668L255.043 21.58C255.067 21.612 255.079 21.656 255.079 21.712C255.079 21.792 255.051 21.86 254.995 21.916C254.947 21.972 254.883 22 254.803 22H254.119C254.031 22 253.963 21.984 253.915 21.952C253.875 21.912 253.839 21.868 253.807 21.82L251.479 18.28H250.075V21.724C250.075 21.804 250.047 21.872 249.991 21.928C249.943 21.976 249.875 22 249.787 22H249.175ZM260.355 22.384C260.275 22.384 260.207 22.356 260.151 22.3C260.103 22.252 260.079 22.188 260.079 22.108V21.16C258.895 21.16 257.987 20.904 257.355 20.392C256.731 19.872 256.367 19.092 256.263 18.052C256.263 17.964 256.259 17.872 256.251 17.776C256.251 17.68 256.251 17.584 256.251 17.488C256.259 17.392 256.263 17.3 256.263 17.212C256.303 16.516 256.479 15.94 256.791 15.484C257.111 15.02 257.551 14.676 258.111 14.452C258.671 14.22 259.327 14.104 260.079 14.104V13.276C260.079 13.196 260.103 13.132 260.151 13.084C260.207 13.028 260.275 13 260.355 13H260.979C261.059 13 261.123 13.028 261.171 13.084C261.227 13.132 261.255 13.196 261.255 13.276V14.104C262.007 14.104 262.663 14.22 263.223 14.452C263.783 14.676 264.223 15.02 264.543 15.484C264.863 15.94 265.039 16.516 265.071 17.212C265.079 17.364 265.083 17.504 265.083 17.632C265.091 17.752 265.087 17.892 265.071 18.052C264.975 19.092 264.611 19.872 263.979 20.392C263.355 20.904 262.447 21.16 261.255 21.16V22.108C261.255 22.188 261.227 22.252 261.171 22.3C261.123 22.356 261.059 22.384 260.979 22.384H260.355ZM260.079 20.128V15.124C259.295 15.124 258.679 15.292 258.231 15.628C257.791 15.964 257.535 16.512 257.463 17.272C257.455 17.4 257.451 17.52 257.451 17.632C257.451 17.736 257.455 17.856 257.463 17.992C257.503 18.744 257.751 19.288 258.207 19.624C258.663 19.96 259.287 20.128 260.079 20.128ZM261.255 20.128C262.047 20.128 262.671 19.96 263.127 19.624C263.583 19.288 263.831 18.744 263.871 17.992C263.879 17.912 263.883 17.832 263.883 17.752C263.883 17.672 263.883 17.592 263.883 17.512C263.883 17.424 263.879 17.344 263.871 17.272C263.791 16.512 263.531 15.964 263.091 15.628C262.651 15.292 262.039 15.124 261.255 15.124V20.128ZM269.865 22.12C269.185 22.12 268.601 22.004 268.113 21.772C267.625 21.532 267.249 21.168 266.985 20.68C266.721 20.184 266.573 19.564 266.541 18.82C266.533 18.468 266.529 18.132 266.529 17.812C266.529 17.484 266.533 17.144 266.541 16.792C266.573 16.056 266.725 15.444 266.997 14.956C267.277 14.46 267.661 14.092 268.149 13.852C268.645 13.604 269.217 13.48 269.865 13.48C270.521 13.48 271.093 13.604 271.581 13.852C272.077 14.092 272.465 14.46 272.745 14.956C273.025 15.444 273.177 16.056 273.201 16.792C273.217 17.144 273.225 17.484 273.225 17.812C273.225 18.132 273.217 18.468 273.201 18.82C273.177 19.564 273.029 20.184 272.757 20.68C272.493 21.168 272.117 21.532 271.629 21.772C271.141 22.004 270.553 22.12 269.865 22.12ZM269.865 21.1C270.481 21.1 270.981 20.916 271.365 20.548C271.757 20.18 271.969 19.584 272.001 18.76C272.017 18.4 272.025 18.08 272.025 17.8C272.025 17.512 272.017 17.192 272.001 16.84C271.985 16.288 271.881 15.84 271.689 15.496C271.505 15.152 271.257 14.9 270.945 14.74C270.633 14.58 270.273 14.5 269.865 14.5C269.473 14.5 269.121 14.58 268.809 14.74C268.497 14.9 268.245 15.152 268.053 15.496C267.869 15.84 267.765 16.288 267.741 16.84C267.733 17.192 267.729 17.512 267.729 17.8C267.729 18.08 267.733 18.4 267.741 18.76C267.773 19.584 267.985 20.18 268.377 20.548C268.769 20.916 269.265 21.1 269.865 21.1Z" fill="#FFFDFA"/>
<defs>
<linearGradient id="paint0_linear_2_37" x1="7.15162" y1="43.8338" x2="34.9579" y2="43.8338" gradientUnits="userSpaceOnUse">
<stop offset="0.23" stop-color="#48B1FF"/>
<stop offset="0.78" stop-color="#0088EF"/>
</linearGradient>
<linearGradient id="paint1_linear_2_37" x1="49.5862" y1="50.8132" x2="34.9186" y2="50.8132" gradientUnits="userSpaceOnUse">
<stop stop-color="#982F34"/>
<stop offset="0.01" stop-color="#992F34"/>
<stop offset="0.68" stop-color="#D5264E"/>
<stop offset="1" stop-color="#EC2358"/>
</linearGradient>
<clipPath id="clip0_2_37">
<rect width="377" height="60" fill="white" transform="translate(0 14)"/>
</clipPath>
</defs>
</svg>
