<svg width="32" height="32" viewBox="0 0 32 32" fill="none" xmlns="http://www.w3.org/2000/svg">
<path d="M25.0003 8.98726C25.0003 9.17224 25.0737 9.34964 25.2043 9.48044C25.3349 9.61124 25.512 9.68473 25.6968 9.68473H29.8757C30.0276 9.69267 30.1779 9.6506 30.3037 9.56496C30.4294 9.47932 30.5238 9.35481 30.5722 9.21045L31.9652 5.02562C31.9945 4.93403 32.0054 4.83756 31.9975 4.74172C31.9895 4.64588 31.9628 4.55255 31.9188 4.46706C31.8748 4.38157 31.8145 4.30559 31.7412 4.24346C31.6679 4.18133 31.5831 4.13427 31.4916 4.10496C31.4001 4.07565 31.3038 4.06466 31.2081 4.07264C31.1124 4.08061 31.0192 4.10738 30.9338 4.15142C30.8484 4.19546 30.7726 4.25591 30.7105 4.32932C30.6485 4.40272 30.6015 4.48764 30.5722 4.57924L29.5971 7.63416C27.6844 4.51155 24.7596 2.14076 21.3114 0.91786C17.8631 -0.305038 14.1002 -0.305979 10.6513 0.915195C7.20247 2.13637 4.27649 4.5057 2.36224 7.62735C0.447982 10.749 -0.338617 14.4339 0.133853 18.0665C0.606323 21.6991 2.30925 25.0593 4.95813 27.5858C7.60701 30.1122 11.0414 31.652 14.6876 31.9477C18.3338 32.2435 21.9709 31.2774 24.9913 29.2108C28.0117 27.1442 30.2325 24.1022 31.2826 20.5932C31.3092 20.5016 31.3174 20.4057 31.3069 20.3109C31.2964 20.2161 31.2674 20.1243 31.2215 20.0407C31.1756 19.9572 31.1137 19.8835 31.0393 19.8239C30.9649 19.7643 30.8796 19.72 30.7881 19.6934C30.6967 19.6669 30.6009 19.6586 30.5062 19.6691C30.4116 19.6796 30.3199 19.7087 30.2365 19.7547C30.1531 19.8007 30.0795 19.8627 30.02 19.9371C29.9605 20.0116 29.9162 20.097 29.8897 20.1886C29.1067 22.7901 27.6165 25.1223 25.5857 26.9242C23.555 28.7262 21.0637 29.927 18.3905 30.3923C15.7173 30.8577 12.9675 30.5692 10.4487 29.5592C7.92978 28.5492 5.7411 26.8575 4.12735 24.6732C2.51359 22.4889 1.53838 19.8982 1.31075 17.1907C1.08311 14.4831 1.61203 11.7656 2.83837 9.34183C4.06471 6.91809 5.94012 4.88372 8.2549 3.4662C10.5697 2.04867 13.2326 1.30387 15.9459 1.31507C18.4397 1.31686 20.8913 1.95896 23.0667 3.18005C25.2421 4.40113 27.0684 6.1604 28.3713 8.28978H25.6968C25.512 8.28978 25.3349 8.36327 25.2043 8.49407C25.0737 8.62487 25.0003 8.80227 25.0003 8.98726Z" fill="#CE3F3F"/>
<path d="M12.0873 14.567C11.6932 14.9598 11.2794 15.3323 10.8475 15.683L7.62971 18.9193C7.50244 19.0164 7.39786 19.1402 7.32326 19.2819C7.27307 19.3768 7.24452 19.4816 7.23968 19.5888V20.0771C7.23849 20.1233 7.2465 20.1693 7.26324 20.2124C7.27998 20.2555 7.30512 20.2949 7.33719 20.3282C7.36995 20.3609 7.40915 20.3865 7.45231 20.4033C7.49548 20.4202 7.54166 20.4278 7.58792 20.4258H14.3161C14.3645 20.4289 14.4131 20.4218 14.4587 20.405C14.5043 20.3882 14.5458 20.362 14.5807 20.3282C14.6159 20.2972 14.643 20.2582 14.66 20.2145C14.677 20.1708 14.6832 20.1237 14.6782 20.0771V19.4493C14.6832 19.4027 14.677 19.3556 14.66 19.3119C14.643 19.2682 14.6159 19.2292 14.5807 19.1982C14.5458 19.1644 14.5043 19.1382 14.4587 19.1214C14.4131 19.1046 14.3645 19.0975 14.3161 19.1006H9.56597L12.4634 16.1294C12.8482 15.7998 13.2068 15.4407 13.536 15.0553C13.8052 14.7259 14.0257 14.3595 14.1907 13.9672C14.3507 13.578 14.4312 13.1606 14.4275 12.7397C14.4335 12.1957 14.3043 11.6588 14.0514 11.1773C13.805 10.6831 13.4105 10.2783 12.9231 10.0195C12.3121 9.70661 11.6306 9.55762 10.945 9.58709C10.4149 9.57653 9.88842 9.67628 9.39881 9.88003C8.97665 10.0527 8.59657 10.3144 8.28442 10.6472C7.9979 10.9561 7.77118 11.3156 7.61578 11.7074C7.46611 12.0808 7.38131 12.4771 7.36505 12.8792C7.3634 12.9193 7.37139 12.9593 7.38836 12.9957C7.40533 13.0321 7.43077 13.0639 7.46256 13.0884C7.52336 13.1439 7.60316 13.1739 7.68543 13.1721H8.47944C8.56475 13.1675 8.64695 13.1384 8.71624 13.0884C8.76148 13.0588 8.79982 13.0199 8.82867 12.9741C8.85751 12.9284 8.87618 12.877 8.8834 12.8234C8.93152 12.4751 9.04496 12.139 9.21772 11.833C9.37448 11.5438 9.61157 11.3064 9.90028 11.1494C10.2205 10.9754 10.5808 10.8888 10.945 10.8983C11.2035 10.8653 11.4661 10.8913 11.7131 10.9744C11.9602 11.0574 12.1852 11.1953 12.3715 11.3778C12.5577 11.5603 12.7003 11.7826 12.7886 12.0281C12.8769 12.2736 12.9086 12.536 12.8813 12.7955C12.885 13.0996 12.8182 13.4004 12.6863 13.6743C12.5368 14.0027 12.3345 14.3043 12.0873 14.567Z" fill="#CE3F3F"/>
<path d="M21.1417 20.3282C21.1745 20.361 21.2137 20.3866 21.2568 20.4034C21.3 20.4202 21.3462 20.4278 21.3924 20.4258H22.2143C22.2606 20.4278 22.3067 20.4202 22.3499 20.4034C22.3931 20.3866 22.4323 20.361 22.465 20.3282C22.5002 20.2972 22.5273 20.2582 22.5443 20.2145C22.5613 20.1708 22.5675 20.1237 22.5625 20.0771V17.887H23.9555C24.0018 17.889 24.0479 17.8813 24.0911 17.8645C24.1342 17.8477 24.1734 17.8221 24.2062 17.7893C24.2389 17.7565 24.2645 17.7172 24.2813 17.674C24.2981 17.6308 24.3057 17.5846 24.3038 17.5383V16.9106C24.3033 16.8177 24.2686 16.7283 24.2063 16.6595C24.1714 16.6256 24.1298 16.5994 24.0842 16.5826C24.0387 16.5658 23.9901 16.5587 23.9416 16.5618H22.5486V10.1032C22.5505 10.0581 22.5432 10.0131 22.5273 9.97084C22.5113 9.9286 22.487 9.89003 22.4558 9.85745C22.4245 9.82486 22.387 9.79895 22.3455 9.78126C22.304 9.76357 22.2594 9.75447 22.2143 9.75451H21.1138C21.0074 9.7466 20.9007 9.76542 20.8034 9.80926C20.7061 9.85311 20.6213 9.9206 20.5566 10.0056L15.9876 16.4642C15.9279 16.5448 15.8809 16.6342 15.8483 16.7292C15.8444 16.7943 15.8444 16.8595 15.8483 16.9245V17.5383C15.8463 17.5846 15.854 17.6309 15.8708 17.6741C15.8875 17.7173 15.9131 17.7566 15.9458 17.7894C15.9791 17.8215 16.0184 17.8467 16.0614 17.8634C16.1045 17.8802 16.1504 17.8882 16.1966 17.887H21.1278V20.0771C21.1011 20.1596 21.106 20.2491 21.1417 20.3282ZM17.3946 16.6595L21.0581 11.3587V16.6595H17.3946Z" fill="#CE3F3F"/>
</svg>
