<svg width="170" height="60" viewBox="0 0 170 60" fill="none" xmlns="http://www.w3.org/2000/svg">
<path d="M34.9579 59.0805L34.9025 6.4586C34.9025 6.4586 24.3783 1.27951 22.0629 0.443097C20.4012 -0.171748 16.2079 -0.415438 14.4298 1.86115C14.164 2.19904 7.2624 9.61598 7.18486 9.71568C7.10731 9.81539 7.18486 59.6898 7.18486 59.6898C7.18486 59.6898 13.5713 58.2828 14.4853 58.1111C16.4129 57.7455 19.3765 57.2415 22.1184 57.5572C23.7801 57.74 34.9525 59.1137 34.9525 59.1137" fill="url(#paint0_linear_2_39)"/>
<path d="M7.53302 57.6458C7.53302 57.6458 12.1858 56.3719 14.3128 55.7626C16.7723 55.1069 19.3308 54.9041 21.8629 55.1643C24.2281 55.4856 34.4863 57.0865 34.4863 57.0865V55.0147C34.4863 55.0147 24.0728 53.486 21.8572 53.1481C19.3349 52.8028 16.7687 52.9704 14.3128 53.6411C12.3686 54.195 7.52734 55.674 7.52734 55.674L7.53302 57.6458Z" fill="white"/>
<path d="M7.52734 53.5691L14.3074 51.5307C16.7707 50.8907 19.3354 50.7382 21.8572 51.082C24.2113 51.4642 34.4809 52.849 34.4809 52.849V50.6333L21.8518 48.9052C19.3276 48.6359 16.7759 48.8007 14.3074 49.3925C12.3576 49.9188 7.52734 51.4309 7.52734 51.4309V53.5691Z" fill="white"/>
<path d="M7.52246 49.4036C7.52246 49.4036 12.1753 47.8028 14.3079 47.2157C16.7646 46.5545 19.3221 46.3516 21.8523 46.6174C24.212 46.9664 34.476 48.7112 34.476 48.7112V46.4956C25.918 44.9391 24.09 44.6289 21.8466 44.3187C19.3144 44.0332 16.7507 44.2496 14.3022 44.9557C12.3857 45.5982 7.52246 47.2932 7.52246 47.2932V49.4036Z" fill="white"/>
<path d="M7.52246 44.9169C7.52246 44.9169 11.8264 43.1721 14.3079 42.1473C16.7129 41.2377 19.3156 40.9798 21.8523 41.3996C24.1898 41.8815 34.476 43.9365 34.476 43.9365V41.8206C34.476 41.8206 24.6771 39.8486 21.8466 39.2337C19.3205 38.7528 16.7107 38.9751 14.3022 39.8764L7.52246 42.8896V44.9169Z" fill="white"/>
<path d="M7.52246 40.8235C7.52246 40.8235 12.3081 38.7408 14.3022 37.777C16.6935 36.8109 19.3115 36.5494 21.8466 37.0236C24.1841 37.5221 34.476 39.8375 34.476 39.8375V37.7714C34.476 37.7714 24.0513 35.301 21.8523 34.8634C19.1215 34.3095 15.8255 34.7581 14.3022 35.5003C12.4854 36.3921 7.52246 38.7131 7.52246 38.7131V40.8235Z" fill="white"/>
<path d="M7.5166 36.9794C7.5166 36.9794 12.369 34.3815 14.2966 33.2958C16.648 32.1881 19.2954 31.8733 21.841 32.3985C24.1675 32.9524 34.4702 35.6666 34.4702 35.6666V33.4509C34.4702 33.4509 24.0344 30.6814 21.8464 30.2161C19.1156 29.6124 15.8199 30.1164 14.2966 31.0082C12.5574 32.0274 7.5166 34.8357 7.5166 34.8357V36.9794Z" fill="white"/>
<path d="M7.51074 32.98C7.51074 32.98 12.4349 29.9114 14.2905 28.6983C15.8138 27.7068 19.1096 27.0365 21.8349 27.8009C24.1336 28.449 34.4643 31.2296 34.4643 31.2296V29.1635C34.4643 29.1635 25.1528 26.5934 21.8349 25.6351C19.1096 24.8486 15.8139 25.4246 14.2851 26.4272C12.6234 27.535 7.51074 30.8585 7.51074 30.8585V32.98Z" fill="white"/>
<path d="M7.51154 28.881L14.2859 24.1561C15.8092 23.087 19.105 22.3061 21.8303 23.1481C24.1179 23.846 34.4594 27.0255 34.4594 27.0255V24.9648C34.4594 24.9648 23.9628 21.6413 21.8303 20.9655C19.0995 20.0904 15.8092 20.6554 14.2859 21.7522C12.6242 22.932 7.50586 26.8371 7.50586 26.8371L7.51154 28.881Z" fill="white"/>
<path d="M7.50541 24.7211C7.50541 24.7211 12.5682 21.0931 14.2798 19.6917C15.803 18.4454 19.099 17.7529 21.8298 18.6447C24.1009 19.3869 34.4536 22.8157 34.4536 22.8157V20.7219C34.4536 20.7219 23.929 17.0495 21.8241 16.3294C19.0934 15.4099 15.803 16.0801 14.2798 17.271C12.7565 18.4619 7.5 22.5942 7.5 22.5942L7.50541 24.7211Z" fill="white"/>
<path d="M7.47754 20.8881L14.2576 15.2659C15.3265 14.4751 16.5699 13.9534 17.8832 13.7451C19.1964 13.5368 20.5406 13.6481 21.8017 14.0694C23.6739 14.7784 34.4311 18.6392 34.4311 18.6392V16.6285C34.4311 16.6285 23.9066 12.4187 21.8017 11.599C19.0764 10.5354 15.7808 11.25 14.2576 12.5461C12.4906 14.0417 7.47754 18.4177 7.47754 18.4177V20.8881Z" fill="white"/>
<path d="M0.0273438 22.7936C0.0273438 22.7936 3.67213 19.6418 5.18432 18.318C5.99303 17.609 7.15088 18.1519 7.15088 18.1519L7.19523 59.1416C6.8784 59.1108 6.55922 59.1108 6.24238 59.1416C4.39231 59.3797 0.0662908 60.0056 0.0662908 60.0056L0.0273438 22.7936Z" fill="#A19F9F"/>
<path d="M0.0332031 24.7878C0.0332031 24.7878 4.27071 21.4311 5.22344 20.65C5.49823 20.4486 5.81245 20.3078 6.14573 20.2372C6.47901 20.1665 6.82359 20.1676 7.15646 20.2401V22.1234C6.50812 21.9792 5.82939 22.0861 5.25671 22.4225C4.10457 23.3199 0.0332031 26.5658 0.0332031 26.5658V24.7878Z" fill="white"/>
<path d="M0 28.3438C0 28.3438 4.34826 25.048 5.29545 24.2836C5.55256 24.0884 5.85189 23.9562 6.16933 23.8975C6.48676 23.8388 6.81336 23.8554 7.12326 23.9458V25.6408C6.48656 25.5694 5.84664 25.7437 5.33413 26.1282C4.16537 26.9923 0 30.1385 0 30.1385V28.3438Z" fill="white"/>
<path d="M0.000526505 31.8002C0.000526505 31.8002 4.43181 28.5653 5.36792 27.9228C5.91122 27.6379 6.51088 27.4772 7.12379 27.452V29.3242C6.51755 29.3597 5.92862 29.5401 5.4066 29.8504L-0.00488281 33.7666L0.000526505 31.8002Z" fill="white"/>
<path d="M0.0390625 35.3398C0.0390625 35.3398 4.52037 32.3597 5.44541 31.7006C5.93661 31.3263 6.55563 31.161 7.168 31.2408V33.2294C6.58146 33.22 6.0046 33.3795 5.50626 33.689C4.27657 34.4756 0.0669205 37.1345 0.0669205 37.1345L0.0390625 35.3398Z" fill="white"/>
<path d="M0.00488281 38.8681C0.00488281 38.8681 4.20355 36.3921 5.54403 35.6498C6.02549 35.3525 6.59516 35.2312 7.156 35.3065V37.367C6.6092 37.3179 6.05979 37.4256 5.57188 37.6773C3.95999 38.5137 0.0327408 40.6628 0.0327408 40.6628L0.00488281 38.8681Z" fill="white"/>
<path d="M0.0497015 42.1584C0.0497015 42.1584 4.2096 40.2087 5.58884 39.5273C6.06364 39.2508 6.62358 39.1582 7.16214 39.267V41.1615C6.64287 41.1045 6.11727 41.1611 5.62211 41.3276C4.23733 41.9369 0.0332031 43.8146 0.0332031 43.8146L0.0497015 42.1584Z" fill="white"/>
<path d="M0.0498047 45.4708C0.0498047 45.4708 4.38717 43.6096 5.67225 43.1444C6.14219 42.9198 6.67778 42.8745 7.17875 43.017V44.9168C6.69281 44.7778 6.1736 44.8132 5.71093 45.0167C4.11012 45.6813 0.0554845 47.2654 0.0554845 47.2654L0.0498047 45.4708Z" fill="white"/>
<path d="M0.0556641 48.9771C0.0556641 48.9771 4.09358 47.5093 5.74978 46.9609C6.21711 46.8167 6.71728 46.8167 7.18461 46.9609V48.7112C6.71987 48.6191 6.23925 48.6476 5.78873 48.7943C3.77802 49.3482 0.0556641 50.7607 0.0556641 50.7607V48.9771Z" fill="white"/>
<path d="M0.0224609 52.5886C0.0224609 52.5886 4.04387 51.3478 5.82747 50.8936C6.27635 50.7791 6.74688 50.7791 7.19576 50.8936V52.7769C6.75384 52.699 6.30006 52.7179 5.86615 52.8323C3.90529 53.3197 0.0224609 54.3833 0.0224609 54.3833V52.5886Z" fill="white"/>
<path d="M0.0605469 56.1281C0.0605469 56.1281 4.04335 55.2641 5.90451 54.9206C6.32878 54.8473 6.76081 54.8306 7.18949 54.8709V56.7708C6.79823 56.7533 6.40633 56.7793 6.02081 56.8482C4.65264 57.0477 0.0662267 57.9283 0.0662267 57.9283L0.0605469 56.1281Z" fill="white"/>
<path d="M49.5753 19.3538C49.5753 19.3538 40.7404 15.8753 39.0011 15.2382C37.5222 14.6843 34.9463 15.2382 34.9463 15.2382L34.9906 57.8897C36.0408 57.805 37.0952 57.7827 38.1481 57.8231C40.5188 57.9505 49.6139 58.6817 49.6139 58.6817L49.5753 19.3538Z" fill="url(#paint1_linear_2_39)"/>
<path d="M49.642 21.3367C49.642 21.3367 41.5104 18.412 38.9181 17.5313C37.6137 17.1505 36.2294 17.1389 34.9189 17.498V19.5199C36.2329 19.1807 37.6164 19.2229 38.9072 19.6417C40.4139 20.1956 49.6363 23.281 49.6363 23.281L49.642 21.3367Z" fill="white"/>
<path d="M49.6415 25.2253L38.8678 21.5805C37.5832 21.203 36.2204 21.18 34.9238 21.5139V23.558C36.2133 23.2659 37.5552 23.2982 38.8291 23.6521C40.873 24.3223 49.6469 27.1695 49.6469 27.1695L49.6415 25.2253Z" fill="white"/>
<path d="M49.6473 28.8867C49.6473 28.8867 41.272 26.2666 38.7905 25.5244C37.5238 25.1745 36.1883 25.1574 34.9131 25.4746V27.4189C36.1788 27.1799 37.4817 27.2215 38.7296 27.5407C40.7126 28.0946 49.6308 30.8309 49.6308 30.8309L49.6473 28.8867Z" fill="white"/>
<path d="M49.6528 32.7972C49.6528 32.7972 41.2 30.4042 38.7019 29.6786C37.475 29.3344 36.1884 29.2589 34.9297 29.4571V31.4291C36.1687 31.2152 37.4387 31.2643 38.6575 31.5731C40.6738 32.127 49.6471 34.5863 49.6471 34.5863L49.6528 32.7972Z" fill="white"/>
<path d="M49.6532 36.4641C49.6532 36.4641 41.2059 34.3371 38.6247 33.6447C37.4159 33.3244 36.1444 33.3244 34.9355 33.6447V35.5391C36.1387 35.2818 37.3829 35.2818 38.586 35.5391C40.5358 36.0099 49.6643 38.3863 49.6643 38.3863L49.6532 36.4641Z" fill="white"/>
<path d="M49.6588 40.0756C49.6588 40.0756 40.9346 38.1038 38.5473 37.5554C37.3605 37.285 36.1282 37.285 34.9414 37.5554V39.5384C36.0973 39.1755 37.3323 39.1487 38.5029 39.4609L49.6588 42.031V40.0756Z" fill="white"/>
<path d="M49.6645 43.6429C49.6645 43.6429 41.0399 41.9147 38.4642 41.3829C37.3029 41.1259 36.0985 41.1353 34.9414 41.4106V43.5431C36.0877 43.3294 37.2619 43.3108 38.4145 43.4878C40.4196 43.7925 49.6588 45.5816 49.6588 45.5816L49.6645 43.6429Z" fill="white"/>
<path d="M49.664 47.5259C40.9731 45.9251 40.9673 45.9195 38.375 45.565C37.2377 45.3918 36.08 45.4029 34.9463 45.5981V47.5535C36.0729 47.4514 37.2073 47.4663 38.3309 47.5978C40.2087 47.8083 40.2696 47.7862 49.664 49.3206V47.5259Z" fill="white"/>
<path d="M49.6697 51.3534C49.6697 51.3534 40.8846 50.0074 38.2922 49.6917C37.189 49.5343 36.0681 49.5474 34.9688 49.7305V51.8574C36.059 51.6097 37.1852 51.5628 38.2922 51.7189C40.3971 51.9183 49.714 53.1536 49.714 53.1536L49.6697 51.3534Z" fill="white"/>
<path d="M49.6747 54.339C49.6747 54.339 40.9449 53.4639 38.2086 53.1647C37.1232 53.0663 36.0295 53.1148 34.957 53.3088V55.4801C36.0207 55.3457 37.0953 55.3198 38.1642 55.4026C40.0863 55.5466 49.6747 56.4328 49.6747 56.4328V54.339Z" fill="white"/>
<path d="M7.57227 15.3491L14.3523 9.72688C15.421 8.93561 16.6646 8.41365 17.9779 8.20537C19.2912 7.99709 20.6354 8.10854 21.8964 8.53033C23.7686 9.23934 34.5258 13.1001 34.5258 13.1001V11.0895C34.5258 11.0895 24.0014 6.8797 21.891 6.06544C19.1657 4.99639 15.8699 5.7109 14.3466 7.00153C12.5796 8.50263 7.57227 12.8786 7.57227 12.8786V15.3491Z" fill="white"/>
<path fill-rule="evenodd" clip-rule="evenodd" d="M136.723 21.3866H134.103V19.6252H131.505V21.3866C128.182 21.3866 124.913 21.154 122.554 23.3364C121.213 24.5439 119.784 26.4383 119.784 28.9199V42.4132C119.784 46.4069 123.446 49.9464 127.378 49.9464H131.505V58.3715H134.103V49.9464C138.412 49.9464 142.683 50.4007 145.043 45.3822C145.545 44.3961 145.818 43.3091 145.84 42.2027V29.579C145.84 24.1285 141.808 21.3866 136.723 21.3866ZM131.505 47.0717H126.952C124.315 47.0717 122.388 44.4737 122.388 41.7485V29.5624C122.388 26.5325 124.725 24.2449 127.157 24.2449H131.505V47.0717ZM143.237 40.6517C143.237 43.9752 141.808 47.0717 138.673 47.0717H134.103V24.2615C137.908 24.2615 140.046 23.7076 141.996 26.1891C142.921 27.3634 143.237 28.6706 143.237 30.6757V40.6517Z" fill="#2697EC"/>
<path fill-rule="evenodd" clip-rule="evenodd" d="M160.436 19.47C158.032 19.7692 156.453 20.2012 154.968 21.9294C153.185 24.0343 152.581 26.6432 152.581 30.0996V47.8914C152.581 53.7518 154.669 58.6539 161.15 58.6539C162.37 58.6891 163.587 58.5014 164.74 58.1C165.708 57.6626 166.595 57.0653 167.365 56.3331C168.589 55.1145 169.714 52.295 169.714 49.891V28.1389C169.714 22.7548 165.77 18.7998 160.436 19.47ZM165.637 54.1451C165.154 54.752 164.536 55.2377 163.832 55.5637C163.128 55.8897 162.357 56.0469 161.582 56.0228C159.477 56.0228 157.937 55.7791 156.658 53.9235C155.855 52.7381 155.439 50.877 155.439 48.9826V29.219C155.439 26.9479 155.949 24.7267 157.317 23.3973C157.356 23.3973 157.395 23.3197 157.428 23.3031C159.643 21.3311 163.521 21.6414 165.282 23.5469C167.686 26.1171 167.088 33.6336 167.088 38.4416C167.088 42.3689 167.819 51.1983 165.637 54.1451Z" fill="#2697EC"/>
<path fill-rule="evenodd" clip-rule="evenodd" d="M97.7933 58.4324H100.646V44.8338C100.646 43.6207 102.485 42.0088 102.862 40.6628C103.748 40.8899 103.316 40.7515 103.765 41.5103L113.63 58.4546H116.483C116.129 57.5424 115.673 56.6727 115.125 55.8622L106.368 40.4524C105.88 39.6105 105.305 38.6799 104.839 37.8047C106.302 35.0351 109.869 29.6345 111.663 26.6156L114.433 22.1067C114.959 21.2204 115.402 20.6278 115.851 19.7858H112.721C112.533 20.5835 102.79 36.2925 101.516 38.2478L100.635 39.5605V19.7858H97.7822L97.7933 58.4324Z" fill="#2697EC"/>
<path fill-rule="evenodd" clip-rule="evenodd" d="M90.7038 55.7792L82.7773 19.7748C77.6259 19.7748 79.055 18.8387 77.792 24.2449L72.4801 48.5894C72.12 50.1514 70.4473 57.3302 70.4473 58.438H72.8733C73.527 55.6186 74.1862 52.7438 74.8453 49.869C77.8475 49.869 83.1541 49.5477 85.8517 49.869C87.1312 49.9964 86.6215 50.6555 87.4136 53.7961C87.7681 55.2419 88.1059 56.9314 88.466 58.4547C92.1883 58.4325 91.3408 58.787 90.7038 55.7792ZM75.3162 47.4428L79.9744 26.4217C80.052 26.0451 80.2405 25.3471 80.3125 24.9926C80.3845 24.6381 80.3898 24.5993 80.484 24.278L80.7999 23.5081C80.7999 24.6935 83.0931 34.2153 83.3977 35.4007L86.0843 47.4428H75.3162Z" fill="#2697EC"/>
<defs>
<linearGradient id="paint0_linear_2_39" x1="7.15162" y1="29.8338" x2="34.9579" y2="29.8338" gradientUnits="userSpaceOnUse">
<stop offset="0.23" stop-color="#48B1FF"/>
<stop offset="0.78" stop-color="#0088EF"/>
</linearGradient>
<linearGradient id="paint1_linear_2_39" x1="49.5862" y1="36.8132" x2="34.9186" y2="36.8132" gradientUnits="userSpaceOnUse">
<stop stop-color="#982F34"/>
<stop offset="0.01" stop-color="#992F34"/>
<stop offset="0.68" stop-color="#D5264E"/>
<stop offset="1" stop-color="#EC2358"/>
</linearGradient>
</defs>
</svg>
