<svg width="196" height="65" viewBox="0 0 196 65" fill="none" xmlns="http://www.w3.org/2000/svg">
<path d="M116.625 23.1616C121.211 20.1994 126.677 19.2006 132.015 20.3495C137.354 21.4983 141.925 24.6573 144.887 29.2441C147.849 33.831 148.848 39.297 147.699 44.6351C146.55 49.9731 143.391 54.5443 138.804 57.5065C134.217 60.4687 128.751 61.4674 123.413 60.3186C118.075 59.1697 113.504 56.0109 110.542 51.4239C107.58 46.837 106.581 41.3711 107.73 36.033C108.879 30.695 112.038 26.1237 116.625 23.1616ZM124.108 57.0895C133.347 59.0779 142.482 53.1791 144.47 43.9401C146.458 34.7012 140.559 25.5669 131.321 23.5786C122.082 21.5902 112.947 27.489 110.959 36.728C108.971 45.9669 114.869 55.1011 124.108 57.0895Z" fill="#CE3F3F"/>
<g clip-path="url(#clip0_68_143)">
<g style="mix-blend-mode:screen">
<path d="M99.8895 14.1942C100.059 13.7758 100.536 13.5742 100.955 13.7441C103.755 14.8813 108.44 17.2712 114.858 22.1994C117.558 24.2723 119.684 26.1228 120.712 27.042C120.974 26.7736 121.298 26.5584 121.673 26.4224C122.048 26.2864 122.434 26.2438 122.807 26.2825C123.007 24.9179 123.453 22.1346 124.197 18.8131C125.964 10.9169 128.029 6.07938 129.449 3.41152C129.662 3.01297 130.157 2.86191 130.556 3.07416C130.954 3.28641 131.105 3.78178 130.893 4.1805C126.556 12.3236 124.674 24.7231 124.355 27.0166C124.614 27.2745 124.823 27.5917 124.956 27.9579L125.525 29.5289C125.748 29.695 125.959 29.8798 126.153 30.0771L128.197 27.9232L129.403 25.3456C129.693 24.7256 130.207 24.2556 130.851 24.0223C131.275 23.8683 131.744 24.0876 131.898 24.5123C132.052 24.937 131.833 25.406 131.408 25.56C131.175 25.6444 130.99 25.8143 130.885 26.0387L129.623 28.7364C129.585 28.816 129.536 28.8891 129.475 28.9528L127.123 31.4313C127.176 31.5422 127.223 31.6523 127.263 31.7609C127.38 32.0837 127.44 32.3902 127.445 32.6807L129.27 32.0189C129.409 31.9684 129.56 31.9566 129.705 31.9849L133.986 32.8197C134.306 32.882 134.638 32.8563 134.944 32.7452L136.723 32.1001C137.148 31.9461 137.617 32.1655 137.771 32.5902C137.925 33.0149 137.705 33.4838 137.281 33.6378L135.502 34.2829C134.917 34.495 134.285 34.5442 133.673 34.4253L129.615 33.6341L127.736 34.3154C128.96 35.4429 129.972 37.1688 130.8 39.1121L132.395 39.0705C133.124 39.0514 133.78 39.4988 134.029 40.1838L136.547 47.1284C136.677 47.4872 136.863 47.8208 137.1 48.1199L140.085 51.8908C140.365 52.245 140.306 52.7594 139.951 53.0397C139.88 53.0958 139.803 53.1384 139.722 53.1676C139.401 53.2843 139.027 53.1894 138.802 52.9062L135.817 49.1353C135.471 48.6979 135.199 48.2104 135.009 47.686L132.491 40.7415C132.483 40.7194 132.462 40.705 132.438 40.7056L131.433 40.7318C132.421 43.481 133.086 46.4373 133.498 48.6543C133.807 50.3144 132.855 51.9457 131.236 52.533L131.068 52.5936C129.449 53.181 127.673 52.5387 126.845 51.0668C125.741 49.1009 124.356 46.4055 123.352 43.6621L122.564 44.2859C122.546 44.3005 122.539 44.3252 122.547 44.3472L125.065 51.2918C125.255 51.816 125.359 52.3645 125.374 52.9223L125.499 57.7301C125.509 58.0913 125.283 58.4037 124.961 58.5205C124.88 58.5497 124.793 58.5666 124.703 58.569C124.251 58.5808 123.876 58.2242 123.864 57.7728L123.738 52.9651C123.728 52.5835 123.657 52.2081 123.527 51.8494L121.009 44.9049C120.761 44.2199 120.978 43.4558 121.549 43.0035L122.8 42.013C122.19 39.9907 121.861 38.0172 122.078 36.3669L120.199 37.0483L117.591 40.2574C117.198 40.7404 116.681 41.1077 116.096 41.3199L114.317 41.9649C113.893 42.1189 113.424 41.8996 113.27 41.4749C113.116 41.0502 113.335 40.5812 113.76 40.4272L115.539 39.7822C115.845 39.6711 116.116 39.4786 116.321 39.2255L119.073 35.8407C119.166 35.7257 119.289 35.6383 119.429 35.5878L121.253 34.926C121.071 34.6996 120.921 34.4259 120.804 34.1031C120.765 33.9945 120.73 33.8798 120.7 33.7606L117.306 33.3658C117.219 33.3557 117.133 33.3315 117.054 33.2944L114.356 32.0324C114.132 31.9275 113.88 31.9162 113.647 32.0006C113.223 32.1546 112.754 31.9353 112.6 31.5106C112.446 31.0859 112.665 30.6169 113.09 30.4629C113.733 30.2296 114.429 30.2607 115.049 30.5508L117.627 31.7565L120.576 32.0996C120.599 31.8238 120.642 31.5469 120.707 31.2763L120.137 29.7052C120.004 29.339 119.961 28.9618 119.995 28.5976C118.28 27.0421 108.893 18.7329 100.34 15.2598C99.9211 15.0898 99.7195 14.6126 99.8895 14.1942ZM124.349 33.8035C126.041 33.1901 125.866 32.707 125.725 32.3187C125.349 31.2813 123.939 30.1244 123.123 30.4205C122.306 30.7166 121.966 32.508 122.342 33.5454C122.483 33.9337 122.658 34.4168 124.349 33.8035ZM121.675 29.1475L121.756 29.37C121.988 29.1617 122.257 28.9944 122.565 28.8828C122.873 28.7712 123.186 28.7272 123.498 28.738L123.418 28.5156C123.244 28.0351 122.711 27.786 122.23 27.9602C121.75 28.1344 121.501 28.667 121.675 29.1475ZM128.271 50.2654C128.705 51.0368 129.647 51.3693 130.511 51.0559L130.678 50.9953C131.542 50.6819 132.052 49.8231 131.89 48.9532C130.501 41.4786 128.25 36.2801 125.836 34.9328C125.561 35.0797 125.252 35.216 124.907 35.3411C124.562 35.4661 124.237 35.5597 123.932 35.623C122.943 38.2044 124.547 43.6377 128.271 50.2654Z" fill="#FFFDFA"/>
</g>
</g>
<path d="M113.25 48.4934L142.451 29.6359C143.16 29.1782 144.105 29.3817 144.563 30.0905C145.021 30.7993 144.817 31.745 144.109 32.2027L114.908 51.0602C114.554 51.2892 114.14 51.3527 113.758 51.2704C113.376 51.1882 113.025 50.9601 112.796 50.6056C112.338 49.8968 112.542 48.9512 113.25 48.4934Z" fill="#CE3F3F"/>
<path d="M148.964 33.2H161.564V46.64H163.364V53.12H159.284L159.044 50H149.684L149.444 53.12H145.364V46.64H146.924C147.388 46.112 147.732 45.52 147.956 44.864C148.196 44.192 148.332 43.584 148.364 43.04L148.964 33.2ZM157.244 46.64V36.56H152.804L152.444 42.56C152.396 43.536 152.156 44.52 151.724 45.512C151.548 45.928 151.348 46.304 151.124 46.64H157.244ZM179.33 50H166.01V33.2H179.33V36.56H170.33V39.8H177.41V43.16H170.33V46.64H179.33V50ZM181.005 46.52C185.085 46.76 187.965 46.88 189.645 46.88C190.013 46.88 190.301 46.776 190.509 46.568C190.733 46.344 190.845 46.048 190.845 45.68V44.72C190.845 43.76 190.365 43.28 189.405 43.28H183.645V39.92H188.925C189.885 39.92 190.365 39.44 190.365 38.48V38C190.365 37.04 189.885 36.56 188.925 36.56H181.245V33.2H190.125C191.693 33.2 192.845 33.56 193.581 34.28C194.317 34.984 194.685 36.064 194.685 37.52C194.685 38.48 194.461 39.264 194.013 39.872C193.581 40.464 193.005 40.88 192.285 41.12C193.581 41.472 194.461 42.336 194.925 43.712C195.085 44.208 195.165 44.784 195.165 45.44V45.68C195.165 47.248 194.797 48.4 194.061 49.136C193.325 49.872 192.173 50.24 190.605 50.24C187.933 50.24 184.733 50.08 181.005 49.76V46.52Z" fill="#FFFEFA"/>
<path d="M14.1606 32.96C14.5606 32.96 15.2806 33.04 16.3206 33.2V36.44H15.3606C15.1206 36.44 14.9046 36.52 14.7126 36.68C14.5206 36.824 14.3766 36.984 14.2806 37.16L12.0006 41.48L16.6806 50H12.1206L8.40063 43.16H6.24063V50H1.92063V33.2H6.24063V39.8H8.40063L10.8006 35.24C11.1526 34.568 11.5846 34.024 12.0966 33.608C12.6246 33.176 13.3126 32.96 14.1606 32.96ZM23.6359 46.88C24.4839 46.88 25.4439 46.72 26.5159 46.4V44.96H23.0359C22.7959 44.96 22.5959 45.04 22.4359 45.2C22.2759 45.36 22.1959 45.56 22.1959 45.8V46.04C22.1959 46.28 22.2759 46.48 22.4359 46.64C22.5959 46.8 22.7959 46.88 23.0359 46.88H23.6359ZM19.1959 37.52C22.1239 37.2 24.7639 37.04 27.1159 37.04C28.2039 37.04 29.0759 37.368 29.7319 38.024C30.3879 38.68 30.7159 39.552 30.7159 40.64V50H26.9959L26.7559 48.8C26.0039 49.296 25.2279 49.664 24.4279 49.904C23.6439 50.128 22.9799 50.24 22.4359 50.24H21.5959C20.5079 50.24 19.6359 49.912 18.9799 49.256C18.3239 48.6 17.9959 47.728 17.9959 46.64V45.56C17.9959 44.472 18.3239 43.6 18.9799 42.944C19.6359 42.288 20.5079 41.96 21.5959 41.96H26.5159V41C26.5159 40.76 26.4359 40.56 26.2759 40.4C26.1159 40.24 25.9159 40.16 25.6759 40.16C24.6359 40.16 23.4839 40.208 22.2199 40.304C20.9719 40.4 19.9639 40.472 19.1959 40.52V37.52ZM35.0294 50.24C34.3414 50.24 33.5414 50.16 32.6294 50V46.88H33.5894C34.1974 46.88 34.5174 46.56 34.5494 45.92L35.0294 37.28H46.5494V50H42.3494V40.52H38.9894L38.6294 46.64C38.5654 47.728 38.2054 48.6 37.5494 49.256C36.8934 49.912 36.0534 50.24 35.0294 50.24ZM57.9409 37.28H62.3809V50H58.1809V43.04L54.1009 50H49.6609V37.28H53.8609V44.24L57.9409 37.28ZM74.0181 41.96V37.28H78.2181V50H74.0181V45.2H69.6981V50H65.4981V37.28H69.6981V41.96H74.0181ZM87.3353 45.2H85.5353V50H81.3353V37.28H85.5353V41.96H87.4553L88.7753 39.32C89.2553 38.296 90.0073 37.6 91.0313 37.232C91.3993 37.104 91.7513 37.04 92.0873 37.04C92.6313 37.04 93.1273 37.08 93.5753 37.16L94.1753 37.28V40.52H93.3353C92.7913 40.52 92.3913 40.76 92.1353 41.24L90.9353 43.64L94.5353 50H89.9753L87.3353 45.2ZM101.486 46.88C102.334 46.88 103.294 46.72 104.366 46.4V44.96H100.886C100.646 44.96 100.446 45.04 100.286 45.2C100.126 45.36 100.046 45.56 100.046 45.8V46.04C100.046 46.28 100.126 46.48 100.286 46.64C100.446 46.8 100.646 46.88 100.886 46.88H101.486ZM97.0459 37.52C99.9739 37.2 102.614 37.04 104.966 37.04C106.054 37.04 106.926 37.368 107.582 38.024C108.238 38.68 108.566 39.552 108.566 40.64V50H104.846L104.606 48.8C103.854 49.296 103.078 49.664 102.278 49.904C101.494 50.128 100.83 50.24 100.286 50.24H99.4459C98.3579 50.24 97.4859 49.912 96.8299 49.256C96.1739 48.6 95.8459 47.728 95.8459 46.64V45.56C95.8459 44.472 96.1739 43.6 96.8299 42.944C97.4859 42.288 98.3579 41.96 99.4459 41.96H104.366V41C104.366 40.76 104.286 40.56 104.126 40.4C103.966 40.24 103.766 40.16 103.526 40.16C102.486 40.16 101.334 40.208 100.07 40.304C98.8219 40.4 97.8139 40.472 97.0459 40.52V37.52Z" fill="#FFFEFA"/>
<defs>
<clipPath id="clip0_68_143">
<rect width="36.2465" height="52.9306" fill="white" transform="matrix(-0.940101 0.340896 0.340896 0.940101 131.075 0)"/>
</clipPath>
</defs>
</svg>
