<svg width="39" height="46" viewBox="0 0 39 46" fill="none" xmlns="http://www.w3.org/2000/svg">
<path d="M13.8786 16.3799C17.1225 14.285 20.988 13.5788 24.7631 14.3912C28.5382 15.2037 31.7709 17.4377 33.8658 20.6815C35.9607 23.9254 36.667 27.791 35.8545 31.5661C35.0421 35.3412 32.8081 38.5739 29.5642 40.6688C26.3204 42.7637 22.4548 43.47 18.6797 42.6575C14.9046 41.8451 11.6719 39.6111 9.57696 36.3672C7.48206 33.1233 6.77578 29.2578 7.58824 25.4827C8.40071 21.7076 10.6347 18.4748 13.8786 16.3799ZM19.1712 40.3739C25.705 41.7801 32.1647 37.6084 33.5709 31.0746C34.9771 24.5408 30.8054 18.081 24.2716 16.6748C17.7378 15.2686 11.278 19.4403 9.87185 25.9741C8.46566 32.508 12.6373 38.9677 19.1712 40.3739Z" fill="#CE3F3F"/>
<g clip-path="url(#clip0_48_82)">
<g style="mix-blend-mode:screen">
<path d="M2.04347 10.0382C2.16364 9.74225 2.50103 9.59973 2.7969 9.71983C4.77738 10.5241 8.0908 12.2142 12.6295 15.6995C14.5386 17.1655 16.0424 18.4741 16.7696 19.1242C16.9543 18.9343 17.1834 18.7822 17.4487 18.686C17.714 18.5898 17.9874 18.5597 18.2509 18.5871C18.3924 17.622 18.7078 15.6536 19.2336 13.3047C20.4835 7.72044 21.9436 4.29934 22.9483 2.41261C23.0985 2.13076 23.4487 2.02393 23.7306 2.17404C24.0125 2.32414 24.1194 2.67446 23.9693 2.95644C20.9025 8.7153 19.5715 17.4843 19.3454 19.1062C19.529 19.2886 19.6764 19.5129 19.7703 19.7719L20.1732 20.8829C20.3309 21.0004 20.48 21.1311 20.6173 21.2706L22.0629 19.7474L22.9156 17.9245C23.1207 17.486 23.4843 17.1536 23.9394 16.9886C24.2397 16.8797 24.5714 17.0348 24.6803 17.3352C24.7892 17.6355 24.634 17.9672 24.3337 18.0761C24.1691 18.1358 24.0376 18.256 23.9634 18.4146L23.0709 20.3225C23.0446 20.3787 23.0094 20.4305 22.9666 20.4755L21.303 22.2283C21.3406 22.3067 21.374 22.3846 21.4018 22.4614C21.4846 22.6897 21.5271 22.9064 21.5309 23.1119L22.8215 22.6439C22.92 22.6081 23.0264 22.5998 23.1293 22.6198L26.1569 23.2102C26.3833 23.2542 26.6175 23.2361 26.8343 23.1575L28.0923 22.7013C28.3926 22.5924 28.7243 22.7475 28.8332 23.0479C28.9421 23.3482 28.7869 23.6799 28.4867 23.7888L27.2286 24.245C26.8149 24.395 26.3678 24.4298 25.9356 24.3457L23.0652 23.7861L21.7364 24.268C22.6023 25.0653 23.3181 26.2859 23.9037 27.6602L25.0318 27.6308C25.5469 27.6173 26.0111 27.9337 26.1868 28.4181L27.9677 33.3294C28.0597 33.5831 28.1913 33.8191 28.3588 34.0306L30.4699 36.6974C30.6682 36.9478 30.6259 37.3117 30.3753 37.5099C30.3252 37.5496 30.2705 37.5796 30.2135 37.6003C29.9858 37.6829 29.7215 37.6157 29.5629 37.4154L27.4518 34.7486C27.207 34.4393 27.0146 34.0945 26.8801 33.7237L25.0992 28.8125C25.0936 28.7969 25.0787 28.7867 25.062 28.7871L24.3515 28.8056C25.0501 30.7499 25.5203 32.8406 25.8118 34.4085C26.03 35.5825 25.3569 36.7361 24.2115 37.1515L24.0932 37.1944C22.9478 37.6098 21.6918 37.1555 21.1068 36.1146C20.3256 34.7243 19.3465 32.8181 18.6365 30.878L18.0793 31.3192C18.0662 31.3295 18.0613 31.3469 18.0669 31.3625L19.8478 36.2737C19.9823 36.6444 20.0557 37.0324 20.066 37.4268L20.1548 40.8269C20.1615 41.0823 20.0016 41.3033 19.7739 41.3859C19.717 41.4065 19.6557 41.4185 19.5917 41.4202C19.2724 41.4285 19.0068 41.1764 18.9984 40.8571L18.9096 37.4571C18.9025 37.1872 18.8523 36.9218 18.7603 36.6681L16.9794 31.7569C16.8037 31.2725 16.9572 30.7321 17.3613 30.4122L18.2461 29.7117C17.8147 28.2815 17.5817 26.8859 17.7354 25.7188L16.4066 26.2006L14.5619 28.4701C14.2842 28.8117 13.9187 29.0715 13.505 29.2215L12.2469 29.6777C11.9466 29.7866 11.6149 29.6315 11.506 29.3312C11.3971 29.0308 11.5523 28.6992 11.8526 28.5903L13.1106 28.1341C13.3273 28.0555 13.5188 27.9194 13.6642 27.7404L15.6099 25.3467C15.676 25.2653 15.7631 25.2035 15.8616 25.1678L17.1522 24.6998C17.0234 24.5397 16.9171 24.3461 16.8343 24.1178C16.8065 24.041 16.7822 23.9599 16.7608 23.8756L14.3604 23.5964C14.2987 23.5893 14.2385 23.5721 14.1822 23.5459L12.2743 22.6534C12.1157 22.5792 11.9377 22.5712 11.7731 22.6309C11.4728 22.7398 11.1411 22.5847 11.0322 22.2844C10.9233 21.984 11.0785 21.6524 11.3787 21.5435C11.8338 21.3785 12.3259 21.4005 12.7644 21.6056L14.5873 22.4583L16.6733 22.701C16.6891 22.5059 16.7198 22.31 16.7657 22.1187L16.3628 21.0076C16.2689 20.7486 16.2382 20.4819 16.2622 20.2243C15.0495 19.1243 8.41059 13.2479 2.36177 10.7918C2.06584 10.6715 1.92329 10.3341 2.04347 10.0382ZM19.3415 23.9059C20.5378 23.4721 20.4139 23.1305 20.3143 22.8559C20.0483 22.1222 19.0515 21.3041 18.474 21.5135C17.8965 21.7229 17.6558 22.9898 17.9219 23.7234C18.0214 23.998 18.1453 24.3397 19.3415 23.9059ZM17.4503 20.6132L17.5073 20.7705C17.6719 20.6233 17.862 20.5049 18.0797 20.426C18.2973 20.3471 18.5191 20.316 18.7398 20.3236L18.6828 20.1663C18.5595 19.8265 18.1829 19.6503 17.8431 19.7735C17.5033 19.8967 17.3271 20.2734 17.4503 20.6132ZM22.1153 35.5478C22.4218 36.0934 23.0878 36.3285 23.6989 36.1069L23.8172 36.064C24.4283 35.8424 24.7887 35.235 24.6744 34.6198C23.692 29.3338 22.0999 25.6574 20.3927 24.7046C20.1984 24.8085 19.9797 24.9049 19.7359 24.9933C19.492 25.0817 19.2624 25.1479 19.0466 25.1927C18.3469 27.0183 19.4813 30.8607 22.1153 35.5478Z" fill="#FFFDFA"/>
</g>
</g>
<path d="M11.4924 34.2947L32.1431 20.9586C32.6444 20.6349 33.3132 20.7788 33.6369 21.2801C33.9606 21.7814 33.8166 22.4502 33.3154 22.7739L12.6647 36.11C12.4141 36.2719 12.1215 36.3168 11.8512 36.2586C11.5809 36.2005 11.3327 36.0392 11.1708 35.7885C10.8472 35.2872 10.9912 34.6185 11.4924 34.2947Z" fill="#CE3F3F"/>
<defs>
<clipPath id="clip0_48_82">
<rect width="25.6337" height="37.4328" fill="white" transform="matrix(-0.940101 0.340896 0.340896 0.940101 24.0983 0)"/>
</clipPath>
</defs>
</svg>
